M48
;DRILL file {KiCad 4.0.7} date 09/08/18 11:18:56
;FORMAT={-:-/ absolute / inch / decimal}
FMAT,2
INCH,TZ
T1C0.024
T2C0.039
%
G90
G05
M72
T1
X4.98Y-4.2
X4.98Y-4.46
X5.03Y-4.15
X5.03Y-4.41
X5.04Y-3.86
X5.08Y-2.68
X5.08Y-4.2
X5.08Y-4.46
X5.12Y-3.28
X5.16Y-3.86
X5.16Y-4.64
X5.2Y-3.32
X5.2Y-4.46
X5.22Y-4.2
X5.25Y-4.41
X5.27Y-4.15
X5.3Y-4.46
X5.32Y-4.2
X5.34Y-3.78
X5.4Y-4.38
X5.42Y-3.32
X5.42Y-3.8
X5.46Y-4.2
X5.52Y-4.2
X5.54Y-3.28
X5.56Y-4.
X5.58Y-3.8
X5.6Y-4.12
X5.66Y-3.2
X5.78Y-3.12
X5.84Y-3.12
T2
X4.98Y-2.4355
X4.98Y-2.5339
X4.98Y-2.6324
X4.98Y-2.7308
X4.98Y-2.8292
X4.98Y-2.9276
X4.98Y-3.0261
X4.98Y-3.1245
X6.1975Y-3.0825
X6.1975Y-3.2825
X6.1975Y-3.4825
X6.1975Y-4.0825
X6.1975Y-4.2825
X6.1975Y-4.4825
X6.2016Y-2.42
X6.3Y-2.42
X6.3984Y-2.42
T0
M30
