M48
;DRILL file {KiCad 4.0.7} date 07/23/18 16:16:31
;FORMAT={-:-/ absolute / inch / decimal}
FMAT,2
INCH,TZ
T1C0.016
T2C0.031
T3C0.039
%
G90
G05
M72
T1
X4.88Y-3.14
X4.88Y-3.42
X4.88Y-3.74
X4.98Y-3.28
X5.02Y-3.54
X5.06Y-4.58
X5.1Y-3.04
X5.12Y-3.42
X5.16Y-4.3
X5.22Y-4.58
X5.24Y-2.86
X5.32Y-3.62
X5.34Y-4.
X5.42Y-2.9
X5.42Y-3.12
X5.56Y-3.9
X5.66Y-3.62
X5.68Y-4.16
X5.68Y-4.3
X5.74Y-3.86
X5.74Y-3.96
X5.76Y-2.86
X5.9Y-3.54
X5.9Y-4.16
T2
X5.24Y-2.64
X5.24Y-3.04
T3
X4.96Y-4.18
X4.96Y-4.4
X4.98Y-2.4355
X4.98Y-2.5339
X4.98Y-2.6324
X4.98Y-2.7308
X4.98Y-2.8292
X4.98Y-2.9276
X4.98Y-3.0261
X4.98Y-3.1245
X5.06Y-4.18
X5.06Y-4.4
X5.16Y-4.18
X5.16Y-4.4
X5.38Y-4.18
X5.38Y-4.4
X5.48Y-4.18
X5.48Y-4.4
X5.58Y-4.18
X5.58Y-4.4
X6.1975Y-3.0825
X6.1975Y-3.2825
X6.1975Y-3.4825
X6.1975Y-4.1625
X6.1975Y-4.3625
X6.1975Y-4.5625
X6.2016Y-2.42
X6.3Y-2.42
X6.3984Y-2.42
T0
M30
