G04 #@! TF.FileFunction,Legend,Top*
%FSLAX46Y46*%
G04 Gerber Fmt 4.6, Leading zero omitted, Abs format (unit mm)*
G04 Created by KiCad (PCBNEW 4.0.7) date 09/08/18 11:18:52*
%MOMM*%
%LPD*%
G01*
G04 APERTURE LIST*
%ADD10C,0.100000*%
%ADD11C,0.200000*%
%ADD12C,0.300000*%
%ADD13C,0.150000*%
%ADD14C,0.120000*%
G04 APERTURE END LIST*
D10*
D11*
X152450857Y-115000000D02*
X151250857Y-115000000D01*
X152450857Y-114485714D02*
X151822286Y-114485714D01*
X151708000Y-114542857D01*
X151650857Y-114657143D01*
X151650857Y-114828571D01*
X151708000Y-114942857D01*
X151765143Y-115000000D01*
X151650857Y-114085714D02*
X151650857Y-113628571D01*
X151250857Y-113914286D02*
X152279429Y-113914286D01*
X152393714Y-113857143D01*
X152450857Y-113742857D01*
X152450857Y-113628571D01*
X151650857Y-113400000D02*
X151650857Y-112942857D01*
X151250857Y-113228572D02*
X152279429Y-113228572D01*
X152393714Y-113171429D01*
X152450857Y-113057143D01*
X152450857Y-112942857D01*
X151650857Y-112542858D02*
X152850857Y-112542858D01*
X151708000Y-112542858D02*
X151650857Y-112428572D01*
X151650857Y-112200001D01*
X151708000Y-112085715D01*
X151765143Y-112028572D01*
X151879429Y-111971429D01*
X152222286Y-111971429D01*
X152336571Y-112028572D01*
X152393714Y-112085715D01*
X152450857Y-112200001D01*
X152450857Y-112428572D01*
X152393714Y-112542858D01*
X152393714Y-111514287D02*
X152450857Y-111400001D01*
X152450857Y-111171429D01*
X152393714Y-111057144D01*
X152279429Y-111000001D01*
X152222286Y-111000001D01*
X152108000Y-111057144D01*
X152050857Y-111171429D01*
X152050857Y-111342858D01*
X151993714Y-111457144D01*
X151879429Y-111514287D01*
X151822286Y-111514287D01*
X151708000Y-111457144D01*
X151650857Y-111342858D01*
X151650857Y-111171429D01*
X151708000Y-111057144D01*
X152336571Y-110485715D02*
X152393714Y-110428572D01*
X152450857Y-110485715D01*
X152393714Y-110542858D01*
X152336571Y-110485715D01*
X152450857Y-110485715D01*
X151708000Y-110485715D02*
X151765143Y-110428572D01*
X151822286Y-110485715D01*
X151765143Y-110542858D01*
X151708000Y-110485715D01*
X151822286Y-110485715D01*
X151193714Y-109057143D02*
X152736571Y-110085714D01*
X151193714Y-107800000D02*
X152736571Y-108828571D01*
X151650857Y-107514285D02*
X152450857Y-107285714D01*
X151879429Y-107057143D01*
X152450857Y-106828571D01*
X151650857Y-106600000D01*
X151650857Y-106257142D02*
X152450857Y-106028571D01*
X151879429Y-105800000D01*
X152450857Y-105571428D01*
X151650857Y-105342857D01*
X151650857Y-104999999D02*
X152450857Y-104771428D01*
X151879429Y-104542857D01*
X152450857Y-104314285D01*
X151650857Y-104085714D01*
X152336571Y-103628571D02*
X152393714Y-103571428D01*
X152450857Y-103628571D01*
X152393714Y-103685714D01*
X152336571Y-103628571D01*
X152450857Y-103628571D01*
X152450857Y-102542856D02*
X151250857Y-102542856D01*
X152393714Y-102542856D02*
X152450857Y-102657142D01*
X152450857Y-102885713D01*
X152393714Y-102999999D01*
X152336571Y-103057142D01*
X152222286Y-103114285D01*
X151879429Y-103114285D01*
X151765143Y-103057142D01*
X151708000Y-102999999D01*
X151650857Y-102885713D01*
X151650857Y-102657142D01*
X151708000Y-102542856D01*
X152450857Y-101799999D02*
X152393714Y-101914285D01*
X152336571Y-101971428D01*
X152222286Y-102028571D01*
X151879429Y-102028571D01*
X151765143Y-101971428D01*
X151708000Y-101914285D01*
X151650857Y-101799999D01*
X151650857Y-101628571D01*
X151708000Y-101514285D01*
X151765143Y-101457142D01*
X151879429Y-101399999D01*
X152222286Y-101399999D01*
X152336571Y-101457142D01*
X152393714Y-101514285D01*
X152450857Y-101628571D01*
X152450857Y-101799999D01*
X152450857Y-100885714D02*
X151650857Y-100885714D01*
X151765143Y-100885714D02*
X151708000Y-100828571D01*
X151650857Y-100714285D01*
X151650857Y-100542857D01*
X151708000Y-100428571D01*
X151822286Y-100371428D01*
X152450857Y-100371428D01*
X151822286Y-100371428D02*
X151708000Y-100314285D01*
X151650857Y-100199999D01*
X151650857Y-100028571D01*
X151708000Y-99914285D01*
X151822286Y-99857142D01*
X152450857Y-99857142D01*
X152393714Y-98828571D02*
X152450857Y-98942857D01*
X152450857Y-99171428D01*
X152393714Y-99285714D01*
X152279429Y-99342857D01*
X151822286Y-99342857D01*
X151708000Y-99285714D01*
X151650857Y-99171428D01*
X151650857Y-98942857D01*
X151708000Y-98828571D01*
X151822286Y-98771428D01*
X151936571Y-98771428D01*
X152050857Y-99342857D01*
X152393714Y-98314286D02*
X152450857Y-98200000D01*
X152450857Y-97971428D01*
X152393714Y-97857143D01*
X152279429Y-97800000D01*
X152222286Y-97800000D01*
X152108000Y-97857143D01*
X152050857Y-97971428D01*
X152050857Y-98142857D01*
X151993714Y-98257143D01*
X151879429Y-98314286D01*
X151822286Y-98314286D01*
X151708000Y-98257143D01*
X151650857Y-98142857D01*
X151650857Y-97971428D01*
X151708000Y-97857143D01*
X152450857Y-96771428D02*
X151250857Y-96771428D01*
X152393714Y-96771428D02*
X152450857Y-96885714D01*
X152450857Y-97114285D01*
X152393714Y-97228571D01*
X152336571Y-97285714D01*
X152222286Y-97342857D01*
X151879429Y-97342857D01*
X151765143Y-97285714D01*
X151708000Y-97228571D01*
X151650857Y-97114285D01*
X151650857Y-96885714D01*
X151708000Y-96771428D01*
X152450857Y-95685714D02*
X151822286Y-95685714D01*
X151708000Y-95742857D01*
X151650857Y-95857143D01*
X151650857Y-96085714D01*
X151708000Y-96200000D01*
X152393714Y-95685714D02*
X152450857Y-95800000D01*
X152450857Y-96085714D01*
X152393714Y-96200000D01*
X152279429Y-96257143D01*
X152165143Y-96257143D01*
X152050857Y-96200000D01*
X151993714Y-96085714D01*
X151993714Y-95800000D01*
X151936571Y-95685714D01*
X151650857Y-95228571D02*
X152450857Y-94942857D01*
X151650857Y-94657143D02*
X152450857Y-94942857D01*
X152736571Y-95057143D01*
X152793714Y-95114286D01*
X152850857Y-95228571D01*
X151765143Y-94028571D02*
X151708000Y-94142857D01*
X151650857Y-94200000D01*
X151536571Y-94257143D01*
X151479429Y-94257143D01*
X151365143Y-94200000D01*
X151308000Y-94142857D01*
X151250857Y-94028571D01*
X151250857Y-93800000D01*
X151308000Y-93685714D01*
X151365143Y-93628571D01*
X151479429Y-93571428D01*
X151536571Y-93571428D01*
X151650857Y-93628571D01*
X151708000Y-93685714D01*
X151765143Y-93800000D01*
X151765143Y-94028571D01*
X151822286Y-94142857D01*
X151879429Y-94200000D01*
X151993714Y-94257143D01*
X152222286Y-94257143D01*
X152336571Y-94200000D01*
X152393714Y-94142857D01*
X152450857Y-94028571D01*
X152450857Y-93800000D01*
X152393714Y-93685714D01*
X152336571Y-93628571D01*
X152222286Y-93571428D01*
X151993714Y-93571428D01*
X151879429Y-93628571D01*
X151822286Y-93685714D01*
X151765143Y-93800000D01*
X151250857Y-92542857D02*
X151250857Y-92771428D01*
X151308000Y-92885714D01*
X151365143Y-92942857D01*
X151536571Y-93057143D01*
X151765143Y-93114286D01*
X152222286Y-93114286D01*
X152336571Y-93057143D01*
X152393714Y-93000000D01*
X152450857Y-92885714D01*
X152450857Y-92657143D01*
X152393714Y-92542857D01*
X152336571Y-92485714D01*
X152222286Y-92428571D01*
X151936571Y-92428571D01*
X151822286Y-92485714D01*
X151765143Y-92542857D01*
X151708000Y-92657143D01*
X151708000Y-92885714D01*
X151765143Y-93000000D01*
X151822286Y-93057143D01*
X151936571Y-93114286D01*
X152336571Y-91914286D02*
X152393714Y-91857143D01*
X152450857Y-91914286D01*
X152393714Y-91971429D01*
X152336571Y-91914286D01*
X152450857Y-91914286D01*
X152393714Y-90828571D02*
X152450857Y-90942857D01*
X152450857Y-91171428D01*
X152393714Y-91285714D01*
X152336571Y-91342857D01*
X152222286Y-91400000D01*
X151879429Y-91400000D01*
X151765143Y-91342857D01*
X151708000Y-91285714D01*
X151650857Y-91171428D01*
X151650857Y-90942857D01*
X151708000Y-90828571D01*
X152450857Y-90142857D02*
X152393714Y-90257143D01*
X152336571Y-90314286D01*
X152222286Y-90371429D01*
X151879429Y-90371429D01*
X151765143Y-90314286D01*
X151708000Y-90257143D01*
X151650857Y-90142857D01*
X151650857Y-89971429D01*
X151708000Y-89857143D01*
X151765143Y-89800000D01*
X151879429Y-89742857D01*
X152222286Y-89742857D01*
X152336571Y-89800000D01*
X152393714Y-89857143D01*
X152450857Y-89971429D01*
X152450857Y-90142857D01*
X152450857Y-89228572D02*
X151650857Y-89228572D01*
X151765143Y-89228572D02*
X151708000Y-89171429D01*
X151650857Y-89057143D01*
X151650857Y-88885715D01*
X151708000Y-88771429D01*
X151822286Y-88714286D01*
X152450857Y-88714286D01*
X151822286Y-88714286D02*
X151708000Y-88657143D01*
X151650857Y-88542857D01*
X151650857Y-88371429D01*
X151708000Y-88257143D01*
X151822286Y-88200000D01*
X152450857Y-88200000D01*
X154450857Y-117485711D02*
X153879429Y-117885711D01*
X154450857Y-118171426D02*
X153250857Y-118171426D01*
X153250857Y-117714283D01*
X153308000Y-117599997D01*
X153365143Y-117542854D01*
X153479429Y-117485711D01*
X153650857Y-117485711D01*
X153765143Y-117542854D01*
X153822286Y-117599997D01*
X153879429Y-117714283D01*
X153879429Y-118171426D01*
X154393714Y-116514283D02*
X154450857Y-116628569D01*
X154450857Y-116857140D01*
X154393714Y-116971426D01*
X154279429Y-117028569D01*
X153822286Y-117028569D01*
X153708000Y-116971426D01*
X153650857Y-116857140D01*
X153650857Y-116628569D01*
X153708000Y-116514283D01*
X153822286Y-116457140D01*
X153936571Y-116457140D01*
X154050857Y-117028569D01*
X154393714Y-115428569D02*
X154450857Y-115542855D01*
X154450857Y-115771426D01*
X154393714Y-115885712D01*
X154336571Y-115942855D01*
X154222286Y-115999998D01*
X153879429Y-115999998D01*
X153765143Y-115942855D01*
X153708000Y-115885712D01*
X153650857Y-115771426D01*
X153650857Y-115542855D01*
X153708000Y-115428569D01*
X154450857Y-114914284D02*
X153650857Y-114914284D01*
X153879429Y-114914284D02*
X153765143Y-114857141D01*
X153708000Y-114799998D01*
X153650857Y-114685712D01*
X153650857Y-114571427D01*
X154393714Y-113714284D02*
X154450857Y-113828570D01*
X154450857Y-114057141D01*
X154393714Y-114171427D01*
X154279429Y-114228570D01*
X153822286Y-114228570D01*
X153708000Y-114171427D01*
X153650857Y-114057141D01*
X153650857Y-113828570D01*
X153708000Y-113714284D01*
X153822286Y-113657141D01*
X153936571Y-113657141D01*
X154050857Y-114228570D01*
X154450857Y-112628570D02*
X153822286Y-112628570D01*
X153708000Y-112685713D01*
X153650857Y-112799999D01*
X153650857Y-113028570D01*
X153708000Y-113142856D01*
X154393714Y-112628570D02*
X154450857Y-112742856D01*
X154450857Y-113028570D01*
X154393714Y-113142856D01*
X154279429Y-113199999D01*
X154165143Y-113199999D01*
X154050857Y-113142856D01*
X153993714Y-113028570D01*
X153993714Y-112742856D01*
X153936571Y-112628570D01*
X153650857Y-112228570D02*
X153650857Y-111771427D01*
X153250857Y-112057142D02*
X154279429Y-112057142D01*
X154393714Y-111999999D01*
X154450857Y-111885713D01*
X154450857Y-111771427D01*
X154450857Y-111371428D02*
X153650857Y-111371428D01*
X153250857Y-111371428D02*
X153308000Y-111428571D01*
X153365143Y-111371428D01*
X153308000Y-111314285D01*
X153250857Y-111371428D01*
X153365143Y-111371428D01*
X153650857Y-110799999D02*
X154450857Y-110799999D01*
X153765143Y-110799999D02*
X153708000Y-110742856D01*
X153650857Y-110628570D01*
X153650857Y-110457142D01*
X153708000Y-110342856D01*
X153822286Y-110285713D01*
X154450857Y-110285713D01*
X153650857Y-109199999D02*
X154622286Y-109199999D01*
X154736571Y-109257142D01*
X154793714Y-109314285D01*
X154850857Y-109428570D01*
X154850857Y-109599999D01*
X154793714Y-109714285D01*
X154393714Y-109199999D02*
X154450857Y-109314285D01*
X154450857Y-109542856D01*
X154393714Y-109657142D01*
X154336571Y-109714285D01*
X154222286Y-109771428D01*
X153879429Y-109771428D01*
X153765143Y-109714285D01*
X153708000Y-109657142D01*
X153650857Y-109542856D01*
X153650857Y-109314285D01*
X153708000Y-109199999D01*
X153650857Y-107885713D02*
X153650857Y-107428570D01*
X153250857Y-107714285D02*
X154279429Y-107714285D01*
X154393714Y-107657142D01*
X154450857Y-107542856D01*
X154450857Y-107428570D01*
X154450857Y-107028571D02*
X153250857Y-107028571D01*
X154450857Y-106514285D02*
X153822286Y-106514285D01*
X153708000Y-106571428D01*
X153650857Y-106685714D01*
X153650857Y-106857142D01*
X153708000Y-106971428D01*
X153765143Y-107028571D01*
X154393714Y-105485714D02*
X154450857Y-105600000D01*
X154450857Y-105828571D01*
X154393714Y-105942857D01*
X154279429Y-106000000D01*
X153822286Y-106000000D01*
X153708000Y-105942857D01*
X153650857Y-105828571D01*
X153650857Y-105600000D01*
X153708000Y-105485714D01*
X153822286Y-105428571D01*
X153936571Y-105428571D01*
X154050857Y-106000000D01*
X154450857Y-104000000D02*
X153250857Y-104000000D01*
X153250857Y-103714285D01*
X153308000Y-103542857D01*
X153422286Y-103428571D01*
X153536571Y-103371428D01*
X153765143Y-103314285D01*
X153936571Y-103314285D01*
X154165143Y-103371428D01*
X154279429Y-103428571D01*
X154393714Y-103542857D01*
X154450857Y-103714285D01*
X154450857Y-104000000D01*
X154450857Y-102628571D02*
X154393714Y-102742857D01*
X154336571Y-102800000D01*
X154222286Y-102857143D01*
X153879429Y-102857143D01*
X153765143Y-102800000D01*
X153708000Y-102742857D01*
X153650857Y-102628571D01*
X153650857Y-102457143D01*
X153708000Y-102342857D01*
X153765143Y-102285714D01*
X153879429Y-102228571D01*
X154222286Y-102228571D01*
X154336571Y-102285714D01*
X154393714Y-102342857D01*
X154450857Y-102457143D01*
X154450857Y-102628571D01*
X154450857Y-101714286D02*
X153650857Y-101714286D01*
X153765143Y-101714286D02*
X153708000Y-101657143D01*
X153650857Y-101542857D01*
X153650857Y-101371429D01*
X153708000Y-101257143D01*
X153822286Y-101200000D01*
X154450857Y-101200000D01*
X153822286Y-101200000D02*
X153708000Y-101142857D01*
X153650857Y-101028571D01*
X153650857Y-100857143D01*
X153708000Y-100742857D01*
X153822286Y-100685714D01*
X154450857Y-100685714D01*
X154393714Y-99657143D02*
X154450857Y-99771429D01*
X154450857Y-100000000D01*
X154393714Y-100114286D01*
X154279429Y-100171429D01*
X153822286Y-100171429D01*
X153708000Y-100114286D01*
X153650857Y-100000000D01*
X153650857Y-99771429D01*
X153708000Y-99657143D01*
X153822286Y-99600000D01*
X153936571Y-99600000D01*
X154050857Y-100171429D01*
X154393714Y-99142858D02*
X154450857Y-99028572D01*
X154450857Y-98800000D01*
X154393714Y-98685715D01*
X154279429Y-98628572D01*
X154222286Y-98628572D01*
X154108000Y-98685715D01*
X154050857Y-98800000D01*
X154050857Y-98971429D01*
X153993714Y-99085715D01*
X153879429Y-99142858D01*
X153822286Y-99142858D01*
X153708000Y-99085715D01*
X153650857Y-98971429D01*
X153650857Y-98800000D01*
X153708000Y-98685715D01*
X154450857Y-97600000D02*
X153250857Y-97600000D01*
X154393714Y-97600000D02*
X154450857Y-97714286D01*
X154450857Y-97942857D01*
X154393714Y-98057143D01*
X154336571Y-98114286D01*
X154222286Y-98171429D01*
X153879429Y-98171429D01*
X153765143Y-98114286D01*
X153708000Y-98057143D01*
X153650857Y-97942857D01*
X153650857Y-97714286D01*
X153708000Y-97600000D01*
X154450857Y-96514286D02*
X153822286Y-96514286D01*
X153708000Y-96571429D01*
X153650857Y-96685715D01*
X153650857Y-96914286D01*
X153708000Y-97028572D01*
X154393714Y-96514286D02*
X154450857Y-96628572D01*
X154450857Y-96914286D01*
X154393714Y-97028572D01*
X154279429Y-97085715D01*
X154165143Y-97085715D01*
X154050857Y-97028572D01*
X153993714Y-96914286D01*
X153993714Y-96628572D01*
X153936571Y-96514286D01*
X153650857Y-96057143D02*
X154450857Y-95771429D01*
X153650857Y-95485715D02*
X154450857Y-95771429D01*
X154736571Y-95885715D01*
X154793714Y-95942858D01*
X154850857Y-96057143D01*
X153822286Y-94114286D02*
X153822286Y-93714286D01*
X154450857Y-93542857D02*
X154450857Y-94114286D01*
X153250857Y-94114286D01*
X153250857Y-93542857D01*
X154450857Y-93142857D02*
X153650857Y-92514286D01*
X153650857Y-93142857D02*
X154450857Y-92514286D01*
X153650857Y-92057143D02*
X154850857Y-92057143D01*
X153708000Y-92057143D02*
X153650857Y-91942857D01*
X153650857Y-91714286D01*
X153708000Y-91600000D01*
X153765143Y-91542857D01*
X153879429Y-91485714D01*
X154222286Y-91485714D01*
X154336571Y-91542857D01*
X154393714Y-91600000D01*
X154450857Y-91714286D01*
X154450857Y-91942857D01*
X154393714Y-92057143D01*
X154393714Y-90514286D02*
X154450857Y-90628572D01*
X154450857Y-90857143D01*
X154393714Y-90971429D01*
X154279429Y-91028572D01*
X153822286Y-91028572D01*
X153708000Y-90971429D01*
X153650857Y-90857143D01*
X153650857Y-90628572D01*
X153708000Y-90514286D01*
X153822286Y-90457143D01*
X153936571Y-90457143D01*
X154050857Y-91028572D01*
X154450857Y-89942858D02*
X153650857Y-89942858D01*
X153879429Y-89942858D02*
X153765143Y-89885715D01*
X153708000Y-89828572D01*
X153650857Y-89714286D01*
X153650857Y-89600001D01*
X154450857Y-89200001D02*
X153650857Y-89200001D01*
X153250857Y-89200001D02*
X153308000Y-89257144D01*
X153365143Y-89200001D01*
X153308000Y-89142858D01*
X153250857Y-89200001D01*
X153365143Y-89200001D01*
X154393714Y-88171429D02*
X154450857Y-88285715D01*
X154450857Y-88514286D01*
X154393714Y-88628572D01*
X154279429Y-88685715D01*
X153822286Y-88685715D01*
X153708000Y-88628572D01*
X153650857Y-88514286D01*
X153650857Y-88285715D01*
X153708000Y-88171429D01*
X153822286Y-88114286D01*
X153936571Y-88114286D01*
X154050857Y-88685715D01*
X153650857Y-87600001D02*
X154450857Y-87600001D01*
X153765143Y-87600001D02*
X153708000Y-87542858D01*
X153650857Y-87428572D01*
X153650857Y-87257144D01*
X153708000Y-87142858D01*
X153822286Y-87085715D01*
X154450857Y-87085715D01*
X154393714Y-86000001D02*
X154450857Y-86114287D01*
X154450857Y-86342858D01*
X154393714Y-86457144D01*
X154336571Y-86514287D01*
X154222286Y-86571430D01*
X153879429Y-86571430D01*
X153765143Y-86514287D01*
X153708000Y-86457144D01*
X153650857Y-86342858D01*
X153650857Y-86114287D01*
X153708000Y-86000001D01*
X154393714Y-85028573D02*
X154450857Y-85142859D01*
X154450857Y-85371430D01*
X154393714Y-85485716D01*
X154279429Y-85542859D01*
X153822286Y-85542859D01*
X153708000Y-85485716D01*
X153650857Y-85371430D01*
X153650857Y-85142859D01*
X153708000Y-85028573D01*
X153822286Y-84971430D01*
X153936571Y-84971430D01*
X154050857Y-85542859D01*
X140328571Y-68596000D02*
X140271429Y-68538857D01*
X140157143Y-68367429D01*
X140100000Y-68253143D01*
X140042857Y-68081714D01*
X139985714Y-67796000D01*
X139985714Y-67567429D01*
X140042857Y-67281714D01*
X140100000Y-67110286D01*
X140157143Y-66996000D01*
X140271429Y-66824571D01*
X140328571Y-66767429D01*
X141300000Y-68081714D02*
X141185714Y-68138857D01*
X140957143Y-68138857D01*
X140842857Y-68081714D01*
X140785714Y-68024571D01*
X140728571Y-67910286D01*
X140728571Y-67567429D01*
X140785714Y-67453143D01*
X140842857Y-67396000D01*
X140957143Y-67338857D01*
X141185714Y-67338857D01*
X141300000Y-67396000D01*
X141700000Y-68596000D02*
X141757142Y-68538857D01*
X141871428Y-68367429D01*
X141928571Y-68253143D01*
X141985714Y-68081714D01*
X142042857Y-67796000D01*
X142042857Y-67567429D01*
X141985714Y-67281714D01*
X141928571Y-67110286D01*
X141871428Y-66996000D01*
X141757142Y-66824571D01*
X141700000Y-66767429D01*
X143471428Y-67053143D02*
X143528571Y-66996000D01*
X143642857Y-66938857D01*
X143928571Y-66938857D01*
X144042857Y-66996000D01*
X144100000Y-67053143D01*
X144157143Y-67167429D01*
X144157143Y-67281714D01*
X144100000Y-67453143D01*
X143414286Y-68138857D01*
X144157143Y-68138857D01*
X144900000Y-66938857D02*
X145014285Y-66938857D01*
X145128571Y-66996000D01*
X145185714Y-67053143D01*
X145242857Y-67167429D01*
X145300000Y-67396000D01*
X145300000Y-67681714D01*
X145242857Y-67910286D01*
X145185714Y-68024571D01*
X145128571Y-68081714D01*
X145014285Y-68138857D01*
X144900000Y-68138857D01*
X144785714Y-68081714D01*
X144728571Y-68024571D01*
X144671428Y-67910286D01*
X144614285Y-67681714D01*
X144614285Y-67396000D01*
X144671428Y-67167429D01*
X144728571Y-67053143D01*
X144785714Y-66996000D01*
X144900000Y-66938857D01*
X146442857Y-68138857D02*
X145757142Y-68138857D01*
X146100000Y-68138857D02*
X146100000Y-66938857D01*
X145985714Y-67110286D01*
X145871428Y-67224571D01*
X145757142Y-67281714D01*
X147128571Y-67453143D02*
X147014285Y-67396000D01*
X146957142Y-67338857D01*
X146899999Y-67224571D01*
X146899999Y-67167429D01*
X146957142Y-67053143D01*
X147014285Y-66996000D01*
X147128571Y-66938857D01*
X147357142Y-66938857D01*
X147471428Y-66996000D01*
X147528571Y-67053143D01*
X147585714Y-67167429D01*
X147585714Y-67224571D01*
X147528571Y-67338857D01*
X147471428Y-67396000D01*
X147357142Y-67453143D01*
X147128571Y-67453143D01*
X147014285Y-67510286D01*
X146957142Y-67567429D01*
X146899999Y-67681714D01*
X146899999Y-67910286D01*
X146957142Y-68024571D01*
X147014285Y-68081714D01*
X147128571Y-68138857D01*
X147357142Y-68138857D01*
X147471428Y-68081714D01*
X147528571Y-68024571D01*
X147585714Y-67910286D01*
X147585714Y-67681714D01*
X147528571Y-67567429D01*
X147471428Y-67510286D01*
X147357142Y-67453143D01*
X148957142Y-68081714D02*
X149128571Y-68138857D01*
X149414285Y-68138857D01*
X149528571Y-68081714D01*
X149585714Y-68024571D01*
X149642857Y-67910286D01*
X149642857Y-67796000D01*
X149585714Y-67681714D01*
X149528571Y-67624571D01*
X149414285Y-67567429D01*
X149185714Y-67510286D01*
X149071428Y-67453143D01*
X149014285Y-67396000D01*
X148957142Y-67281714D01*
X148957142Y-67167429D01*
X149014285Y-67053143D01*
X149071428Y-66996000D01*
X149185714Y-66938857D01*
X149471428Y-66938857D01*
X149642857Y-66996000D01*
X150157142Y-68138857D02*
X150157142Y-67338857D01*
X150157142Y-66938857D02*
X150099999Y-66996000D01*
X150157142Y-67053143D01*
X150214285Y-66996000D01*
X150157142Y-66938857D01*
X150157142Y-67053143D01*
X150728571Y-68138857D02*
X150728571Y-67338857D01*
X150728571Y-67453143D02*
X150785714Y-67396000D01*
X150900000Y-67338857D01*
X151071428Y-67338857D01*
X151185714Y-67396000D01*
X151242857Y-67510286D01*
X151242857Y-68138857D01*
X151242857Y-67510286D02*
X151300000Y-67396000D01*
X151414286Y-67338857D01*
X151585714Y-67338857D01*
X151700000Y-67396000D01*
X151757143Y-67510286D01*
X151757143Y-68138857D01*
X152500000Y-68138857D02*
X152385714Y-68081714D01*
X152328571Y-68024571D01*
X152271428Y-67910286D01*
X152271428Y-67567429D01*
X152328571Y-67453143D01*
X152385714Y-67396000D01*
X152500000Y-67338857D01*
X152671428Y-67338857D01*
X152785714Y-67396000D01*
X152842857Y-67453143D01*
X152900000Y-67567429D01*
X152900000Y-67910286D01*
X152842857Y-68024571D01*
X152785714Y-68081714D01*
X152671428Y-68138857D01*
X152500000Y-68138857D01*
X153414285Y-67338857D02*
X153414285Y-68138857D01*
X153414285Y-67453143D02*
X153471428Y-67396000D01*
X153585714Y-67338857D01*
X153757142Y-67338857D01*
X153871428Y-67396000D01*
X153928571Y-67510286D01*
X153928571Y-68138857D01*
X155414285Y-68138857D02*
X155414285Y-66938857D01*
X155985714Y-67338857D02*
X155985714Y-68138857D01*
X155985714Y-67453143D02*
X156042857Y-67396000D01*
X156157143Y-67338857D01*
X156328571Y-67338857D01*
X156442857Y-67396000D01*
X156500000Y-67510286D01*
X156500000Y-68138857D01*
X157071428Y-67338857D02*
X157071428Y-68138857D01*
X157071428Y-67453143D02*
X157128571Y-67396000D01*
X157242857Y-67338857D01*
X157414285Y-67338857D01*
X157528571Y-67396000D01*
X157585714Y-67510286D01*
X157585714Y-68138857D01*
X158099999Y-68081714D02*
X158214285Y-68138857D01*
X158442857Y-68138857D01*
X158557142Y-68081714D01*
X158614285Y-67967429D01*
X158614285Y-67910286D01*
X158557142Y-67796000D01*
X158442857Y-67738857D01*
X158271428Y-67738857D01*
X158157142Y-67681714D01*
X158099999Y-67567429D01*
X158099999Y-67510286D01*
X158157142Y-67396000D01*
X158271428Y-67338857D01*
X158442857Y-67338857D01*
X158557142Y-67396000D01*
X140671429Y-70024571D02*
X140614286Y-70081714D01*
X140442857Y-70138857D01*
X140328571Y-70138857D01*
X140157143Y-70081714D01*
X140042857Y-69967429D01*
X139985714Y-69853143D01*
X139928571Y-69624571D01*
X139928571Y-69453143D01*
X139985714Y-69224571D01*
X140042857Y-69110286D01*
X140157143Y-68996000D01*
X140328571Y-68938857D01*
X140442857Y-68938857D01*
X140614286Y-68996000D01*
X140671429Y-69053143D01*
X141871429Y-70024571D02*
X141814286Y-70081714D01*
X141642857Y-70138857D01*
X141528571Y-70138857D01*
X141357143Y-70081714D01*
X141242857Y-69967429D01*
X141185714Y-69853143D01*
X141128571Y-69624571D01*
X141128571Y-69453143D01*
X141185714Y-69224571D01*
X141242857Y-69110286D01*
X141357143Y-68996000D01*
X141528571Y-68938857D01*
X141642857Y-68938857D01*
X141814286Y-68996000D01*
X141871429Y-69053143D01*
X143242857Y-70081714D02*
X143414286Y-70138857D01*
X143700000Y-70138857D01*
X143814286Y-70081714D01*
X143871429Y-70024571D01*
X143928572Y-69910286D01*
X143928572Y-69796000D01*
X143871429Y-69681714D01*
X143814286Y-69624571D01*
X143700000Y-69567429D01*
X143471429Y-69510286D01*
X143357143Y-69453143D01*
X143300000Y-69396000D01*
X143242857Y-69281714D01*
X143242857Y-69167429D01*
X143300000Y-69053143D01*
X143357143Y-68996000D01*
X143471429Y-68938857D01*
X143757143Y-68938857D01*
X143928572Y-68996000D01*
X144385714Y-69796000D02*
X144957143Y-69796000D01*
X144271429Y-70138857D02*
X144671429Y-68938857D01*
X145071429Y-70138857D01*
X145471428Y-69681714D02*
X146385714Y-69681714D01*
X147357142Y-69510286D02*
X147528571Y-69567429D01*
X147585714Y-69624571D01*
X147642857Y-69738857D01*
X147642857Y-69910286D01*
X147585714Y-70024571D01*
X147528571Y-70081714D01*
X147414285Y-70138857D01*
X146957142Y-70138857D01*
X146957142Y-68938857D01*
X147357142Y-68938857D01*
X147471428Y-68996000D01*
X147528571Y-69053143D01*
X147585714Y-69167429D01*
X147585714Y-69281714D01*
X147528571Y-69396000D01*
X147471428Y-69453143D01*
X147357142Y-69510286D01*
X146957142Y-69510286D01*
X148385714Y-69567429D02*
X148385714Y-70138857D01*
X147985714Y-68938857D02*
X148385714Y-69567429D01*
X148785714Y-68938857D01*
X150614285Y-69338857D02*
X150614285Y-70138857D01*
X150328571Y-68881714D02*
X150042856Y-69738857D01*
X150785714Y-69738857D01*
X151242856Y-70024571D02*
X151299999Y-70081714D01*
X151242856Y-70138857D01*
X151185713Y-70081714D01*
X151242856Y-70024571D01*
X151242856Y-70138857D01*
X152042857Y-68938857D02*
X152157142Y-68938857D01*
X152271428Y-68996000D01*
X152328571Y-69053143D01*
X152385714Y-69167429D01*
X152442857Y-69396000D01*
X152442857Y-69681714D01*
X152385714Y-69910286D01*
X152328571Y-70024571D01*
X152271428Y-70081714D01*
X152157142Y-70138857D01*
X152042857Y-70138857D01*
X151928571Y-70081714D01*
X151871428Y-70024571D01*
X151814285Y-69910286D01*
X151757142Y-69681714D01*
X151757142Y-69396000D01*
X151814285Y-69167429D01*
X151871428Y-69053143D01*
X151928571Y-68996000D01*
X152042857Y-68938857D01*
X140214286Y-70938857D02*
X140442857Y-70938857D01*
X140557143Y-70996000D01*
X140671429Y-71110286D01*
X140728571Y-71338857D01*
X140728571Y-71738857D01*
X140671429Y-71967429D01*
X140557143Y-72081714D01*
X140442857Y-72138857D01*
X140214286Y-72138857D01*
X140100000Y-72081714D01*
X139985714Y-71967429D01*
X139928571Y-71738857D01*
X139928571Y-71338857D01*
X139985714Y-71110286D01*
X140100000Y-70996000D01*
X140214286Y-70938857D01*
X141242857Y-71338857D02*
X141242857Y-72538857D01*
X141242857Y-71396000D02*
X141357143Y-71338857D01*
X141585714Y-71338857D01*
X141700000Y-71396000D01*
X141757143Y-71453143D01*
X141814286Y-71567429D01*
X141814286Y-71910286D01*
X141757143Y-72024571D01*
X141700000Y-72081714D01*
X141585714Y-72138857D01*
X141357143Y-72138857D01*
X141242857Y-72081714D01*
X142785714Y-72081714D02*
X142671428Y-72138857D01*
X142442857Y-72138857D01*
X142328571Y-72081714D01*
X142271428Y-71967429D01*
X142271428Y-71510286D01*
X142328571Y-71396000D01*
X142442857Y-71338857D01*
X142671428Y-71338857D01*
X142785714Y-71396000D01*
X142842857Y-71510286D01*
X142842857Y-71624571D01*
X142271428Y-71738857D01*
X143357142Y-71338857D02*
X143357142Y-72138857D01*
X143357142Y-71453143D02*
X143414285Y-71396000D01*
X143528571Y-71338857D01*
X143699999Y-71338857D01*
X143814285Y-71396000D01*
X143871428Y-71510286D01*
X143871428Y-72138857D01*
X144442856Y-71681714D02*
X145357142Y-71681714D01*
X145871427Y-72081714D02*
X146042856Y-72138857D01*
X146328570Y-72138857D01*
X146442856Y-72081714D01*
X146499999Y-72024571D01*
X146557142Y-71910286D01*
X146557142Y-71796000D01*
X146499999Y-71681714D01*
X146442856Y-71624571D01*
X146328570Y-71567429D01*
X146099999Y-71510286D01*
X145985713Y-71453143D01*
X145928570Y-71396000D01*
X145871427Y-71281714D01*
X145871427Y-71167429D01*
X145928570Y-71053143D01*
X145985713Y-70996000D01*
X146099999Y-70938857D01*
X146385713Y-70938857D01*
X146557142Y-70996000D01*
X147242856Y-72138857D02*
X147128570Y-72081714D01*
X147071427Y-72024571D01*
X147014284Y-71910286D01*
X147014284Y-71567429D01*
X147071427Y-71453143D01*
X147128570Y-71396000D01*
X147242856Y-71338857D01*
X147414284Y-71338857D01*
X147528570Y-71396000D01*
X147585713Y-71453143D01*
X147642856Y-71567429D01*
X147642856Y-71910286D01*
X147585713Y-72024571D01*
X147528570Y-72081714D01*
X147414284Y-72138857D01*
X147242856Y-72138857D01*
X148671427Y-71338857D02*
X148671427Y-72138857D01*
X148157141Y-71338857D02*
X148157141Y-71967429D01*
X148214284Y-72081714D01*
X148328570Y-72138857D01*
X148499998Y-72138857D01*
X148614284Y-72081714D01*
X148671427Y-72024571D01*
X149242855Y-72138857D02*
X149242855Y-71338857D01*
X149242855Y-71567429D02*
X149299998Y-71453143D01*
X149357141Y-71396000D01*
X149471427Y-71338857D01*
X149585712Y-71338857D01*
X150499998Y-72081714D02*
X150385712Y-72138857D01*
X150157141Y-72138857D01*
X150042855Y-72081714D01*
X149985712Y-72024571D01*
X149928569Y-71910286D01*
X149928569Y-71567429D01*
X149985712Y-71453143D01*
X150042855Y-71396000D01*
X150157141Y-71338857D01*
X150385712Y-71338857D01*
X150499998Y-71396000D01*
X151471426Y-72081714D02*
X151357140Y-72138857D01*
X151128569Y-72138857D01*
X151014283Y-72081714D01*
X150957140Y-71967429D01*
X150957140Y-71510286D01*
X151014283Y-71396000D01*
X151128569Y-71338857D01*
X151357140Y-71338857D01*
X151471426Y-71396000D01*
X151528569Y-71510286D01*
X151528569Y-71624571D01*
X150957140Y-71738857D01*
X152957140Y-72138857D02*
X152957140Y-70938857D01*
X152957140Y-71510286D02*
X153642855Y-71510286D01*
X153642855Y-72138857D02*
X153642855Y-70938857D01*
X154728569Y-72138857D02*
X154728569Y-71510286D01*
X154671426Y-71396000D01*
X154557140Y-71338857D01*
X154328569Y-71338857D01*
X154214283Y-71396000D01*
X154728569Y-72081714D02*
X154614283Y-72138857D01*
X154328569Y-72138857D01*
X154214283Y-72081714D01*
X154157140Y-71967429D01*
X154157140Y-71853143D01*
X154214283Y-71738857D01*
X154328569Y-71681714D01*
X154614283Y-71681714D01*
X154728569Y-71624571D01*
X155299997Y-72138857D02*
X155299997Y-71338857D01*
X155299997Y-71567429D02*
X155357140Y-71453143D01*
X155414283Y-71396000D01*
X155528569Y-71338857D01*
X155642854Y-71338857D01*
X156557140Y-72138857D02*
X156557140Y-70938857D01*
X156557140Y-72081714D02*
X156442854Y-72138857D01*
X156214283Y-72138857D01*
X156099997Y-72081714D01*
X156042854Y-72024571D01*
X155985711Y-71910286D01*
X155985711Y-71567429D01*
X156042854Y-71453143D01*
X156099997Y-71396000D01*
X156214283Y-71338857D01*
X156442854Y-71338857D01*
X156557140Y-71396000D01*
X157014283Y-71338857D02*
X157242854Y-72138857D01*
X157471425Y-71567429D01*
X157699997Y-72138857D01*
X157928568Y-71338857D01*
X158899997Y-72138857D02*
X158899997Y-71510286D01*
X158842854Y-71396000D01*
X158728568Y-71338857D01*
X158499997Y-71338857D01*
X158385711Y-71396000D01*
X158899997Y-72081714D02*
X158785711Y-72138857D01*
X158499997Y-72138857D01*
X158385711Y-72081714D01*
X158328568Y-71967429D01*
X158328568Y-71853143D01*
X158385711Y-71738857D01*
X158499997Y-71681714D01*
X158785711Y-71681714D01*
X158899997Y-71624571D01*
X159471425Y-72138857D02*
X159471425Y-71338857D01*
X159471425Y-71567429D02*
X159528568Y-71453143D01*
X159585711Y-71396000D01*
X159699997Y-71338857D01*
X159814282Y-71338857D01*
X160671425Y-72081714D02*
X160557139Y-72138857D01*
X160328568Y-72138857D01*
X160214282Y-72081714D01*
X160157139Y-71967429D01*
X160157139Y-71510286D01*
X160214282Y-71396000D01*
X160328568Y-71338857D01*
X160557139Y-71338857D01*
X160671425Y-71396000D01*
X160728568Y-71510286D01*
X160728568Y-71624571D01*
X160157139Y-71738857D01*
D12*
X146723571Y-113492856D02*
X145223571Y-113492856D01*
X145223571Y-112921428D01*
X145295000Y-112778570D01*
X145366429Y-112707142D01*
X145509286Y-112635713D01*
X145723571Y-112635713D01*
X145866429Y-112707142D01*
X145937857Y-112778570D01*
X146009286Y-112921428D01*
X146009286Y-113492856D01*
X146723571Y-111992856D02*
X145223571Y-111992856D01*
X146723571Y-111349999D02*
X145937857Y-111349999D01*
X145795000Y-111421428D01*
X145723571Y-111564285D01*
X145723571Y-111778570D01*
X145795000Y-111921428D01*
X145866429Y-111992856D01*
X146723571Y-110635713D02*
X145723571Y-110635713D01*
X145223571Y-110635713D02*
X145295000Y-110707142D01*
X145366429Y-110635713D01*
X145295000Y-110564285D01*
X145223571Y-110635713D01*
X145366429Y-110635713D01*
X146723571Y-109707141D02*
X146652143Y-109849999D01*
X146509286Y-109921427D01*
X145223571Y-109921427D01*
X146723571Y-109135713D02*
X145723571Y-109135713D01*
X145223571Y-109135713D02*
X145295000Y-109207142D01*
X145366429Y-109135713D01*
X145295000Y-109064285D01*
X145223571Y-109135713D01*
X145366429Y-109135713D01*
X145723571Y-108421427D02*
X147223571Y-108421427D01*
X145795000Y-108421427D02*
X145723571Y-108278570D01*
X145723571Y-107992856D01*
X145795000Y-107849999D01*
X145866429Y-107778570D01*
X146009286Y-107707141D01*
X146437857Y-107707141D01*
X146580714Y-107778570D01*
X146652143Y-107849999D01*
X146723571Y-107992856D01*
X146723571Y-108278570D01*
X146652143Y-108421427D01*
X146652143Y-107135713D02*
X146723571Y-106992856D01*
X146723571Y-106707141D01*
X146652143Y-106564284D01*
X146509286Y-106492856D01*
X146437857Y-106492856D01*
X146295000Y-106564284D01*
X146223571Y-106707141D01*
X146223571Y-106921427D01*
X146152143Y-107064284D01*
X146009286Y-107135713D01*
X145937857Y-107135713D01*
X145795000Y-107064284D01*
X145723571Y-106921427D01*
X145723571Y-106707141D01*
X145795000Y-106564284D01*
X145223571Y-104921427D02*
X146723571Y-104421427D01*
X145223571Y-103921427D01*
X146723571Y-103421427D02*
X145223571Y-103421427D01*
X145223571Y-102849999D01*
X145295000Y-102707141D01*
X145366429Y-102635713D01*
X145509286Y-102564284D01*
X145723571Y-102564284D01*
X145866429Y-102635713D01*
X145937857Y-102707141D01*
X146009286Y-102849999D01*
X146009286Y-103421427D01*
X145723571Y-101278570D02*
X146723571Y-101278570D01*
X145152143Y-101635713D02*
X146223571Y-101992856D01*
X146223571Y-101064284D01*
X146723571Y-99707142D02*
X146723571Y-100564285D01*
X146723571Y-100135713D02*
X145223571Y-100135713D01*
X145437857Y-100278570D01*
X145580714Y-100421428D01*
X145652143Y-100564285D01*
X145223571Y-98349999D02*
X145223571Y-99064285D01*
X145937857Y-99135714D01*
X145866429Y-99064285D01*
X145795000Y-98921428D01*
X145795000Y-98564285D01*
X145866429Y-98421428D01*
X145937857Y-98349999D01*
X146080714Y-98278571D01*
X146437857Y-98278571D01*
X146580714Y-98349999D01*
X146652143Y-98421428D01*
X146723571Y-98564285D01*
X146723571Y-98921428D01*
X146652143Y-99064285D01*
X146580714Y-99135714D01*
X145152143Y-96564286D02*
X147080714Y-97850000D01*
X145223571Y-96278571D02*
X146723571Y-95778571D01*
X145223571Y-95278571D01*
X146723571Y-94778571D02*
X145223571Y-94778571D01*
X145223571Y-94207143D01*
X145295000Y-94064285D01*
X145366429Y-93992857D01*
X145509286Y-93921428D01*
X145723571Y-93921428D01*
X145866429Y-93992857D01*
X145937857Y-94064285D01*
X146009286Y-94207143D01*
X146009286Y-94778571D01*
X145723571Y-92635714D02*
X146723571Y-92635714D01*
X145152143Y-92992857D02*
X146223571Y-93350000D01*
X146223571Y-92421428D01*
X146723571Y-91064286D02*
X146723571Y-91921429D01*
X146723571Y-91492857D02*
X145223571Y-91492857D01*
X145437857Y-91635714D01*
X145580714Y-91778572D01*
X145652143Y-91921429D01*
X145223571Y-90135715D02*
X145223571Y-89992858D01*
X145295000Y-89850001D01*
X145366429Y-89778572D01*
X145509286Y-89707143D01*
X145795000Y-89635715D01*
X146152143Y-89635715D01*
X146437857Y-89707143D01*
X146580714Y-89778572D01*
X146652143Y-89850001D01*
X146723571Y-89992858D01*
X146723571Y-90135715D01*
X146652143Y-90278572D01*
X146580714Y-90350001D01*
X146437857Y-90421429D01*
X146152143Y-90492858D01*
X145795000Y-90492858D01*
X145509286Y-90421429D01*
X145366429Y-90350001D01*
X145295000Y-90278572D01*
X145223571Y-90135715D01*
X148487857Y-112814285D02*
X148487857Y-113314285D01*
X149273571Y-113314285D02*
X147773571Y-113314285D01*
X147773571Y-112599999D01*
X149273571Y-112028571D02*
X148273571Y-112028571D01*
X148559286Y-112028571D02*
X148416429Y-111957143D01*
X148345000Y-111885714D01*
X148273571Y-111742857D01*
X148273571Y-111600000D01*
X149273571Y-110885714D02*
X149202143Y-111028572D01*
X149130714Y-111100000D01*
X148987857Y-111171429D01*
X148559286Y-111171429D01*
X148416429Y-111100000D01*
X148345000Y-111028572D01*
X148273571Y-110885714D01*
X148273571Y-110671429D01*
X148345000Y-110528572D01*
X148416429Y-110457143D01*
X148559286Y-110385714D01*
X148987857Y-110385714D01*
X149130714Y-110457143D01*
X149202143Y-110528572D01*
X149273571Y-110671429D01*
X149273571Y-110885714D01*
X148273571Y-109742857D02*
X149273571Y-109742857D01*
X148416429Y-109742857D02*
X148345000Y-109671429D01*
X148273571Y-109528571D01*
X148273571Y-109314286D01*
X148345000Y-109171429D01*
X148487857Y-109100000D01*
X149273571Y-109100000D01*
X148273571Y-108600000D02*
X148273571Y-108028571D01*
X147773571Y-108385714D02*
X149059286Y-108385714D01*
X149202143Y-108314286D01*
X149273571Y-108171428D01*
X149273571Y-108028571D01*
X148702143Y-107528571D02*
X148702143Y-106385714D01*
X149273571Y-104957142D02*
X149273571Y-105671428D01*
X147773571Y-105671428D01*
X149273571Y-104242856D02*
X149202143Y-104385714D01*
X149130714Y-104457142D01*
X148987857Y-104528571D01*
X148559286Y-104528571D01*
X148416429Y-104457142D01*
X148345000Y-104385714D01*
X148273571Y-104242856D01*
X148273571Y-104028571D01*
X148345000Y-103885714D01*
X148416429Y-103814285D01*
X148559286Y-103742856D01*
X148987857Y-103742856D01*
X149130714Y-103814285D01*
X149202143Y-103885714D01*
X149273571Y-104028571D01*
X149273571Y-104242856D01*
X149273571Y-102457142D02*
X148487857Y-102457142D01*
X148345000Y-102528571D01*
X148273571Y-102671428D01*
X148273571Y-102957142D01*
X148345000Y-103099999D01*
X149202143Y-102457142D02*
X149273571Y-102599999D01*
X149273571Y-102957142D01*
X149202143Y-103099999D01*
X149059286Y-103171428D01*
X148916429Y-103171428D01*
X148773571Y-103099999D01*
X148702143Y-102957142D01*
X148702143Y-102599999D01*
X148630714Y-102457142D01*
X149273571Y-101099999D02*
X147773571Y-101099999D01*
X149202143Y-101099999D02*
X149273571Y-101242856D01*
X149273571Y-101528570D01*
X149202143Y-101671428D01*
X149130714Y-101742856D01*
X148987857Y-101814285D01*
X148559286Y-101814285D01*
X148416429Y-101742856D01*
X148345000Y-101671428D01*
X148273571Y-101528570D01*
X148273571Y-101242856D01*
X148345000Y-101099999D01*
X149202143Y-99814285D02*
X149273571Y-99957142D01*
X149273571Y-100242856D01*
X149202143Y-100385713D01*
X149059286Y-100457142D01*
X148487857Y-100457142D01*
X148345000Y-100385713D01*
X148273571Y-100242856D01*
X148273571Y-99957142D01*
X148345000Y-99814285D01*
X148487857Y-99742856D01*
X148630714Y-99742856D01*
X148773571Y-100457142D01*
X149273571Y-99099999D02*
X148273571Y-99099999D01*
X148559286Y-99099999D02*
X148416429Y-99028571D01*
X148345000Y-98957142D01*
X148273571Y-98814285D01*
X148273571Y-98671428D01*
X149273571Y-97028571D02*
X147773571Y-97028571D01*
X148845000Y-96528571D01*
X147773571Y-96028571D01*
X149273571Y-96028571D01*
X149273571Y-95099999D02*
X149202143Y-95242857D01*
X149130714Y-95314285D01*
X148987857Y-95385714D01*
X148559286Y-95385714D01*
X148416429Y-95314285D01*
X148345000Y-95242857D01*
X148273571Y-95099999D01*
X148273571Y-94885714D01*
X148345000Y-94742857D01*
X148416429Y-94671428D01*
X148559286Y-94599999D01*
X148987857Y-94599999D01*
X149130714Y-94671428D01*
X149202143Y-94742857D01*
X149273571Y-94885714D01*
X149273571Y-95099999D01*
X149273571Y-93314285D02*
X147773571Y-93314285D01*
X149202143Y-93314285D02*
X149273571Y-93457142D01*
X149273571Y-93742856D01*
X149202143Y-93885714D01*
X149130714Y-93957142D01*
X148987857Y-94028571D01*
X148559286Y-94028571D01*
X148416429Y-93957142D01*
X148345000Y-93885714D01*
X148273571Y-93742856D01*
X148273571Y-93457142D01*
X148345000Y-93314285D01*
X148273571Y-91957142D02*
X149273571Y-91957142D01*
X148273571Y-92599999D02*
X149059286Y-92599999D01*
X149202143Y-92528571D01*
X149273571Y-92385713D01*
X149273571Y-92171428D01*
X149202143Y-92028571D01*
X149130714Y-91957142D01*
X149273571Y-91028570D02*
X149202143Y-91171428D01*
X149059286Y-91242856D01*
X147773571Y-91242856D01*
X149202143Y-89885714D02*
X149273571Y-90028571D01*
X149273571Y-90314285D01*
X149202143Y-90457142D01*
X149059286Y-90528571D01*
X148487857Y-90528571D01*
X148345000Y-90457142D01*
X148273571Y-90314285D01*
X148273571Y-90028571D01*
X148345000Y-89885714D01*
X148487857Y-89814285D01*
X148630714Y-89814285D01*
X148773571Y-90528571D01*
X123484001Y-128718571D02*
X123984001Y-130218571D01*
X124484001Y-128718571D01*
X125769715Y-130218571D02*
X124912572Y-130218571D01*
X125341144Y-130218571D02*
X125341144Y-128718571D01*
X125198287Y-128932857D01*
X125055429Y-129075714D01*
X124912572Y-129147143D01*
X126055429Y-130361429D02*
X127198286Y-130361429D01*
X128341143Y-130218571D02*
X127484000Y-130218571D01*
X127912572Y-130218571D02*
X127912572Y-128718571D01*
X127769715Y-128932857D01*
X127626857Y-129075714D01*
X127484000Y-129147143D01*
D13*
X123367000Y-74362000D02*
X123367000Y-82799500D01*
X123367000Y-58424500D02*
X123367000Y-66862000D01*
X123367000Y-66862000D02*
X123679500Y-66862000D01*
X123679500Y-66862000D02*
X123679500Y-74362000D01*
X123679500Y-74362000D02*
X123367000Y-74362000D01*
X123367000Y-74362000D02*
X123054500Y-74362000D01*
X123367000Y-66862000D02*
X123054500Y-66862000D01*
X129617000Y-81862000D02*
X129617000Y-82799500D01*
X129617000Y-58424500D02*
X129617000Y-59362000D01*
X128992000Y-80299500D02*
X128992000Y-81862000D01*
X128992000Y-81862000D02*
X129617000Y-81862000D01*
X129617000Y-59362000D02*
X128992000Y-59362000D01*
X128992000Y-59362000D02*
X128992000Y-60924500D01*
X128992000Y-60924500D02*
X128992000Y-80299500D01*
X123054500Y-58112000D02*
X129929500Y-58112000D01*
X123054500Y-83112000D02*
X129929500Y-83112000D01*
X123367000Y-58424500D02*
X129617000Y-58424500D01*
X123367000Y-82799500D02*
X129617000Y-82799500D01*
X123054500Y-58112000D02*
X123054500Y-83112000D01*
X129929500Y-58112000D02*
X129929500Y-83112000D01*
X170180000Y-79629000D02*
X170180000Y-79756000D01*
X170180000Y-79756000D02*
X169926000Y-80200500D01*
X169926000Y-80200500D02*
X169164000Y-80200500D01*
X169164000Y-78549500D02*
X169926000Y-78549500D01*
X169926000Y-78549500D02*
X170180000Y-78930500D01*
X170180000Y-78930500D02*
X170180000Y-79629000D01*
X167259000Y-89281000D02*
X173291500Y-70104000D01*
X167282452Y-89281000D02*
G75*
G03X167282452Y-89281000I-785452J0D01*
G01*
X168275000Y-77914500D02*
X169164000Y-77914500D01*
X169164000Y-77914500D02*
X169164000Y-80835500D01*
X169164000Y-80835500D02*
X168275000Y-80835500D01*
X167259000Y-77216000D02*
X168275000Y-77216000D01*
X168275000Y-77216000D02*
X168275000Y-81534000D01*
X168275000Y-81534000D02*
X167259000Y-81534000D01*
X166497000Y-76708000D02*
X167259000Y-76708000D01*
X167259000Y-76708000D02*
X167259000Y-82042000D01*
X167259000Y-82042000D02*
X166497000Y-82042000D01*
X160020000Y-88455500D02*
X158496000Y-88455500D01*
X160020000Y-83375500D02*
X158496000Y-83375500D01*
X160020000Y-78295500D02*
X158496000Y-78295500D01*
X166497000Y-76708000D02*
X166497000Y-90043000D01*
X166497000Y-90043000D02*
X160020000Y-90043000D01*
X160020000Y-76708000D02*
X166497000Y-76708000D01*
X160020000Y-76708000D02*
X160020000Y-90043000D01*
D14*
X137162000Y-61464000D02*
X137162000Y-68584000D01*
X131062000Y-61464000D02*
X131062000Y-68584000D01*
X133096000Y-73916000D02*
X134516000Y-73916000D01*
X132336000Y-80516000D02*
X134516000Y-80516000D01*
X138936000Y-80516000D02*
X136756000Y-80516000D01*
X138176000Y-73916000D02*
X136756000Y-73916000D01*
X132336000Y-80516000D02*
X132336000Y-74676000D01*
X132336000Y-74676000D02*
X133096000Y-73916000D01*
X138176000Y-73916000D02*
X138936000Y-74676000D01*
X138936000Y-74676000D02*
X138936000Y-80516000D01*
X145284000Y-74926000D02*
X144884000Y-74926000D01*
X146054000Y-79506000D02*
X144884000Y-79506000D01*
X141474000Y-79506000D02*
X142644000Y-79506000D01*
X142244000Y-74926000D02*
X142644000Y-74926000D01*
X141474000Y-75696000D02*
X141474000Y-79506000D01*
X141474000Y-75696000D02*
X142244000Y-74926000D01*
X146054000Y-75696000D02*
X146054000Y-79506000D01*
X146054000Y-75696000D02*
X145284000Y-74926000D01*
D13*
X154082500Y-64905500D02*
X166270000Y-64905500D01*
X166270000Y-58030500D02*
X154082500Y-58030500D01*
X156895000Y-63968000D02*
X163457500Y-63968000D01*
X154082500Y-58030500D02*
X154082500Y-64905500D01*
X156270000Y-58343000D02*
X154395000Y-58343000D01*
X165957500Y-58343000D02*
X163770000Y-58343000D01*
X163770000Y-58343000D02*
X163770000Y-58655500D01*
X163770000Y-58655500D02*
X156270000Y-58655500D01*
X156270000Y-58655500D02*
X156270000Y-58343000D01*
X156270000Y-58343000D02*
X156270000Y-58030500D01*
X163770000Y-58343000D02*
X163770000Y-58030500D01*
X155332500Y-64593000D02*
X154395000Y-64593000D01*
X165957500Y-64593000D02*
X165020000Y-64593000D01*
X156895000Y-63968000D02*
X155332500Y-63968000D01*
X155332500Y-63968000D02*
X155332500Y-64593000D01*
X165020000Y-64593000D02*
X165020000Y-63968000D01*
X165020000Y-63968000D02*
X163457500Y-63968000D01*
X166270000Y-58030500D02*
X166270000Y-64905500D01*
X165957500Y-58343000D02*
X165957500Y-64593000D01*
X154395000Y-58343000D02*
X154395000Y-64593000D01*
X144780000Y-63500000D02*
X144780000Y-65024000D01*
X141732000Y-61976000D02*
X140208000Y-61976000D01*
X144780000Y-60452000D02*
X144780000Y-58928000D01*
X147828000Y-61976000D02*
X149352000Y-61976000D01*
X143256000Y-65024000D02*
X146304000Y-65024000D01*
X143256000Y-58928000D02*
X146304000Y-58928000D01*
X140208000Y-61976000D02*
G75*
G03X143256000Y-65024000I3048000J0D01*
G01*
X149352000Y-61976000D02*
G75*
G03X146304000Y-58928000I-3048000J0D01*
G01*
X146304000Y-65024000D02*
G75*
G03X149352000Y-61976000I0J3048000D01*
G01*
X143256000Y-58928000D02*
G75*
G03X140208000Y-61976000I0J-3048000D01*
G01*
X144780000Y-129032000D02*
X144780000Y-130556000D01*
X141732000Y-127508000D02*
X140208000Y-127508000D01*
X144780000Y-125984000D02*
X144780000Y-124460000D01*
X147828000Y-127508000D02*
X149352000Y-127508000D01*
X143256000Y-130556000D02*
X146304000Y-130556000D01*
X143256000Y-124460000D02*
X146304000Y-124460000D01*
X140208000Y-127508000D02*
G75*
G03X143256000Y-130556000I3048000J0D01*
G01*
X149352000Y-127508000D02*
G75*
G03X146304000Y-124460000I-3048000J0D01*
G01*
X146304000Y-130556000D02*
G75*
G03X149352000Y-127508000I0J3048000D01*
G01*
X143256000Y-124460000D02*
G75*
G03X140208000Y-127508000I0J-3048000D01*
G01*
D14*
X140460000Y-110800000D02*
X140460000Y-109870000D01*
X140460000Y-107640000D02*
X140460000Y-108570000D01*
X140460000Y-107640000D02*
X138300000Y-107640000D01*
X140460000Y-110800000D02*
X139000000Y-110800000D01*
X140460000Y-106228000D02*
X140460000Y-105298000D01*
X140460000Y-103068000D02*
X140460000Y-103998000D01*
X140460000Y-103068000D02*
X138300000Y-103068000D01*
X140460000Y-106228000D02*
X139000000Y-106228000D01*
X140460000Y-101656000D02*
X140460000Y-100726000D01*
X140460000Y-98496000D02*
X140460000Y-99426000D01*
X140460000Y-98496000D02*
X138300000Y-98496000D01*
X140460000Y-101656000D02*
X139000000Y-101656000D01*
D13*
X170180000Y-105029000D02*
X170180000Y-105156000D01*
X170180000Y-105156000D02*
X169926000Y-105600500D01*
X169926000Y-105600500D02*
X169164000Y-105600500D01*
X169164000Y-103949500D02*
X169926000Y-103949500D01*
X169926000Y-103949500D02*
X170180000Y-104330500D01*
X170180000Y-104330500D02*
X170180000Y-105029000D01*
X167259000Y-114681000D02*
X173291500Y-95504000D01*
X167282452Y-114681000D02*
G75*
G03X167282452Y-114681000I-785452J0D01*
G01*
X168275000Y-103314500D02*
X169164000Y-103314500D01*
X169164000Y-103314500D02*
X169164000Y-106235500D01*
X169164000Y-106235500D02*
X168275000Y-106235500D01*
X167259000Y-102616000D02*
X168275000Y-102616000D01*
X168275000Y-102616000D02*
X168275000Y-106934000D01*
X168275000Y-106934000D02*
X167259000Y-106934000D01*
X166497000Y-102108000D02*
X167259000Y-102108000D01*
X167259000Y-102108000D02*
X167259000Y-107442000D01*
X167259000Y-107442000D02*
X166497000Y-107442000D01*
X160020000Y-113855500D02*
X158496000Y-113855500D01*
X160020000Y-108775500D02*
X158496000Y-108775500D01*
X160020000Y-103695500D02*
X158496000Y-103695500D01*
X166497000Y-102108000D02*
X166497000Y-115443000D01*
X166497000Y-115443000D02*
X160020000Y-115443000D01*
X160020000Y-102108000D02*
X166497000Y-102108000D01*
X160020000Y-102108000D02*
X160020000Y-115443000D01*
D14*
X129758000Y-97012000D02*
X129758000Y-95012000D01*
X129758000Y-95012000D02*
X125858000Y-95012000D01*
X129758000Y-97012000D02*
X125858000Y-97012000D01*
X140732000Y-95722000D02*
X142732000Y-95722000D01*
X142732000Y-95722000D02*
X142732000Y-91822000D01*
X140732000Y-95722000D02*
X140732000Y-91822000D01*
X136668000Y-95722000D02*
X138668000Y-95722000D01*
X138668000Y-95722000D02*
X138668000Y-91822000D01*
X136668000Y-95722000D02*
X136668000Y-91822000D01*
X133730000Y-86008000D02*
X130430000Y-86008000D01*
X130430000Y-86008000D02*
X130430000Y-91408000D01*
X133730000Y-86008000D02*
X133730000Y-91408000D01*
X128650000Y-86008000D02*
X125350000Y-86008000D01*
X125350000Y-86008000D02*
X125350000Y-91408000D01*
X128650000Y-86008000D02*
X128650000Y-91408000D01*
X128508000Y-101146000D02*
X126508000Y-101146000D01*
X126508000Y-99006000D02*
X128508000Y-99006000D01*
X142802000Y-86884000D02*
X142802000Y-88884000D01*
X140662000Y-88884000D02*
X140662000Y-86884000D01*
X133588000Y-101146000D02*
X131588000Y-101146000D01*
X131588000Y-99006000D02*
X133588000Y-99006000D01*
X131588000Y-94942000D02*
X133588000Y-94942000D01*
X133588000Y-97082000D02*
X131588000Y-97082000D01*
X138738000Y-86884000D02*
X138738000Y-88884000D01*
X136598000Y-88884000D02*
X136598000Y-86884000D01*
X128508000Y-122990000D02*
X126508000Y-122990000D01*
X126508000Y-120850000D02*
X128508000Y-120850000D01*
X132604000Y-116786000D02*
X134604000Y-116786000D01*
X134604000Y-118926000D02*
X132604000Y-118926000D01*
X128508000Y-118926000D02*
X126508000Y-118926000D01*
X126508000Y-116786000D02*
X128508000Y-116786000D01*
X132604000Y-120850000D02*
X134604000Y-120850000D01*
X134604000Y-122990000D02*
X132604000Y-122990000D01*
X125962000Y-108530000D02*
X129562000Y-108530000D01*
X125923522Y-108518478D02*
G75*
G02X127762000Y-104080000I1838478J1838478D01*
G01*
X129600478Y-108518478D02*
G75*
G03X127762000Y-104080000I-1838478J1838478D01*
G01*
X125962000Y-115134000D02*
X129562000Y-115134000D01*
X125923522Y-115122478D02*
G75*
G02X127762000Y-110684000I1838478J1838478D01*
G01*
X129600478Y-115122478D02*
G75*
G03X127762000Y-110684000I-1838478J1838478D01*
G01*
X131550000Y-115134000D02*
X135150000Y-115134000D01*
X131511522Y-115122478D02*
G75*
G02X133350000Y-110684000I1838478J1838478D01*
G01*
X135188478Y-115122478D02*
G75*
G03X133350000Y-110684000I-1838478J1838478D01*
G01*
X132058000Y-108530000D02*
X135658000Y-108530000D01*
X132019522Y-108518478D02*
G75*
G02X133858000Y-104080000I1838478J1838478D01*
G01*
X135696478Y-108518478D02*
G75*
G03X133858000Y-104080000I-1838478J1838478D01*
G01*
D13*
X130794286Y-58380381D02*
X130794286Y-59094667D01*
X130746666Y-59237524D01*
X130651428Y-59332762D01*
X130508571Y-59380381D01*
X130413333Y-59380381D01*
X131794286Y-59380381D02*
X131222857Y-59380381D01*
X131508571Y-59380381D02*
X131508571Y-58380381D01*
X131413333Y-58523238D01*
X131318095Y-58618476D01*
X131222857Y-58666095D01*
X132413333Y-58380381D02*
X132508572Y-58380381D01*
X132603810Y-58428000D01*
X132651429Y-58475619D01*
X132699048Y-58570857D01*
X132746667Y-58761333D01*
X132746667Y-58999429D01*
X132699048Y-59189905D01*
X132651429Y-59285143D01*
X132603810Y-59332762D01*
X132508572Y-59380381D01*
X132413333Y-59380381D01*
X132318095Y-59332762D01*
X132270476Y-59285143D01*
X132222857Y-59189905D01*
X132175238Y-58999429D01*
X132175238Y-58761333D01*
X132222857Y-58570857D01*
X132270476Y-58475619D01*
X132318095Y-58428000D01*
X132413333Y-58380381D01*
X133699048Y-59380381D02*
X133127619Y-59380381D01*
X133413333Y-59380381D02*
X133413333Y-58380381D01*
X133318095Y-58523238D01*
X133222857Y-58618476D01*
X133127619Y-58666095D01*
X160782286Y-76096762D02*
X160925143Y-76144381D01*
X161163239Y-76144381D01*
X161258477Y-76096762D01*
X161306096Y-76049143D01*
X161353715Y-75953905D01*
X161353715Y-75858667D01*
X161306096Y-75763429D01*
X161258477Y-75715810D01*
X161163239Y-75668190D01*
X160972762Y-75620571D01*
X160877524Y-75572952D01*
X160829905Y-75525333D01*
X160782286Y-75430095D01*
X160782286Y-75334857D01*
X160829905Y-75239619D01*
X160877524Y-75192000D01*
X160972762Y-75144381D01*
X161210858Y-75144381D01*
X161353715Y-75192000D01*
X161687048Y-75144381D02*
X161925143Y-76144381D01*
X162115620Y-75430095D01*
X162306096Y-76144381D01*
X162544191Y-75144381D01*
X163448953Y-76144381D02*
X162877524Y-76144381D01*
X163163238Y-76144381D02*
X163163238Y-75144381D01*
X163068000Y-75287238D01*
X162972762Y-75382476D01*
X162877524Y-75430095D01*
X164068000Y-75144381D02*
X164163239Y-75144381D01*
X164258477Y-75192000D01*
X164306096Y-75239619D01*
X164353715Y-75334857D01*
X164401334Y-75525333D01*
X164401334Y-75763429D01*
X164353715Y-75953905D01*
X164306096Y-76049143D01*
X164258477Y-76096762D01*
X164163239Y-76144381D01*
X164068000Y-76144381D01*
X163972762Y-76096762D01*
X163925143Y-76049143D01*
X163877524Y-75953905D01*
X163829905Y-75763429D01*
X163829905Y-75525333D01*
X163877524Y-75334857D01*
X163925143Y-75239619D01*
X163972762Y-75192000D01*
X164068000Y-75144381D01*
X165353715Y-76144381D02*
X164782286Y-76144381D01*
X165068000Y-76144381D02*
X165068000Y-75144381D01*
X164972762Y-75287238D01*
X164877524Y-75382476D01*
X164782286Y-75430095D01*
X138170571Y-66309714D02*
X138170571Y-66643048D01*
X138694381Y-66643048D02*
X137694381Y-66643048D01*
X137694381Y-66166857D01*
X138694381Y-65262095D02*
X138694381Y-65833524D01*
X138694381Y-65547810D02*
X137694381Y-65547810D01*
X137837238Y-65643048D01*
X137932476Y-65738286D01*
X137980095Y-65833524D01*
X137694381Y-64643048D02*
X137694381Y-64547809D01*
X137742000Y-64452571D01*
X137789619Y-64404952D01*
X137884857Y-64357333D01*
X138075333Y-64309714D01*
X138313429Y-64309714D01*
X138503905Y-64357333D01*
X138599143Y-64404952D01*
X138646762Y-64452571D01*
X138694381Y-64547809D01*
X138694381Y-64643048D01*
X138646762Y-64738286D01*
X138599143Y-64785905D01*
X138503905Y-64833524D01*
X138313429Y-64881143D01*
X138075333Y-64881143D01*
X137884857Y-64833524D01*
X137789619Y-64785905D01*
X137742000Y-64738286D01*
X137694381Y-64643048D01*
X138694381Y-63357333D02*
X138694381Y-63928762D01*
X138694381Y-63643048D02*
X137694381Y-63643048D01*
X137837238Y-63738286D01*
X137932476Y-63833524D01*
X137980095Y-63928762D01*
X131563143Y-78335047D02*
X131610762Y-78382666D01*
X131658381Y-78525523D01*
X131658381Y-78620761D01*
X131610762Y-78763619D01*
X131515524Y-78858857D01*
X131420286Y-78906476D01*
X131229810Y-78954095D01*
X131086952Y-78954095D01*
X130896476Y-78906476D01*
X130801238Y-78858857D01*
X130706000Y-78763619D01*
X130658381Y-78620761D01*
X130658381Y-78525523D01*
X130706000Y-78382666D01*
X130753619Y-78335047D01*
X131658381Y-77382666D02*
X131658381Y-77954095D01*
X131658381Y-77668381D02*
X130658381Y-77668381D01*
X130801238Y-77763619D01*
X130896476Y-77858857D01*
X130944095Y-77954095D01*
X130658381Y-76763619D02*
X130658381Y-76668380D01*
X130706000Y-76573142D01*
X130753619Y-76525523D01*
X130848857Y-76477904D01*
X131039333Y-76430285D01*
X131277429Y-76430285D01*
X131467905Y-76477904D01*
X131563143Y-76525523D01*
X131610762Y-76573142D01*
X131658381Y-76668380D01*
X131658381Y-76763619D01*
X131610762Y-76858857D01*
X131563143Y-76906476D01*
X131467905Y-76954095D01*
X131277429Y-77001714D01*
X131039333Y-77001714D01*
X130848857Y-76954095D01*
X130753619Y-76906476D01*
X130706000Y-76858857D01*
X130658381Y-76763619D01*
X131658381Y-75477904D02*
X131658381Y-76049333D01*
X131658381Y-75763619D02*
X130658381Y-75763619D01*
X130801238Y-75858857D01*
X130896476Y-75954095D01*
X130944095Y-76049333D01*
X132797429Y-73316952D02*
X132797429Y-72555047D01*
X133178381Y-72935999D02*
X132416476Y-72935999D01*
X140581143Y-78335047D02*
X140628762Y-78382666D01*
X140676381Y-78525523D01*
X140676381Y-78620761D01*
X140628762Y-78763619D01*
X140533524Y-78858857D01*
X140438286Y-78906476D01*
X140247810Y-78954095D01*
X140104952Y-78954095D01*
X139914476Y-78906476D01*
X139819238Y-78858857D01*
X139724000Y-78763619D01*
X139676381Y-78620761D01*
X139676381Y-78525523D01*
X139724000Y-78382666D01*
X139771619Y-78335047D01*
X140676381Y-77382666D02*
X140676381Y-77954095D01*
X140676381Y-77668381D02*
X139676381Y-77668381D01*
X139819238Y-77763619D01*
X139914476Y-77858857D01*
X139962095Y-77954095D01*
X139676381Y-76763619D02*
X139676381Y-76668380D01*
X139724000Y-76573142D01*
X139771619Y-76525523D01*
X139866857Y-76477904D01*
X140057333Y-76430285D01*
X140295429Y-76430285D01*
X140485905Y-76477904D01*
X140581143Y-76525523D01*
X140628762Y-76573142D01*
X140676381Y-76668380D01*
X140676381Y-76763619D01*
X140628762Y-76858857D01*
X140581143Y-76906476D01*
X140485905Y-76954095D01*
X140295429Y-77001714D01*
X140057333Y-77001714D01*
X139866857Y-76954095D01*
X139771619Y-76906476D01*
X139724000Y-76858857D01*
X139676381Y-76763619D01*
X139771619Y-76049333D02*
X139724000Y-76001714D01*
X139676381Y-75906476D01*
X139676381Y-75668380D01*
X139724000Y-75573142D01*
X139771619Y-75525523D01*
X139866857Y-75477904D01*
X139962095Y-75477904D01*
X140104952Y-75525523D01*
X140676381Y-76096952D01*
X140676381Y-75477904D01*
X141825429Y-74826952D02*
X141825429Y-74065047D01*
X142206381Y-74445999D02*
X141444476Y-74445999D01*
X152360381Y-64277714D02*
X153074667Y-64277714D01*
X153217524Y-64325334D01*
X153312762Y-64420572D01*
X153360381Y-64563429D01*
X153360381Y-64658667D01*
X153360381Y-63277714D02*
X153360381Y-63849143D01*
X153360381Y-63563429D02*
X152360381Y-63563429D01*
X152503238Y-63658667D01*
X152598476Y-63753905D01*
X152646095Y-63849143D01*
X152360381Y-62658667D02*
X152360381Y-62563428D01*
X152408000Y-62468190D01*
X152455619Y-62420571D01*
X152550857Y-62372952D01*
X152741333Y-62325333D01*
X152979429Y-62325333D01*
X153169905Y-62372952D01*
X153265143Y-62420571D01*
X153312762Y-62468190D01*
X153360381Y-62563428D01*
X153360381Y-62658667D01*
X153312762Y-62753905D01*
X153265143Y-62801524D01*
X153169905Y-62849143D01*
X152979429Y-62896762D01*
X152741333Y-62896762D01*
X152550857Y-62849143D01*
X152455619Y-62801524D01*
X152408000Y-62753905D01*
X152360381Y-62658667D01*
X152455619Y-61944381D02*
X152408000Y-61896762D01*
X152360381Y-61801524D01*
X152360381Y-61563428D01*
X152408000Y-61468190D01*
X152455619Y-61420571D01*
X152550857Y-61372952D01*
X152646095Y-61372952D01*
X152788952Y-61420571D01*
X153360381Y-61992000D01*
X153360381Y-61372952D01*
X142787619Y-110267619D02*
X142740000Y-110362857D01*
X142644762Y-110458095D01*
X142501905Y-110600952D01*
X142454286Y-110696191D01*
X142454286Y-110791429D01*
X142692381Y-110743810D02*
X142644762Y-110839048D01*
X142549524Y-110934286D01*
X142359048Y-110981905D01*
X142025714Y-110981905D01*
X141835238Y-110934286D01*
X141740000Y-110839048D01*
X141692381Y-110743810D01*
X141692381Y-110553333D01*
X141740000Y-110458095D01*
X141835238Y-110362857D01*
X142025714Y-110315238D01*
X142359048Y-110315238D01*
X142549524Y-110362857D01*
X142644762Y-110458095D01*
X142692381Y-110553333D01*
X142692381Y-110743810D01*
X142692381Y-109362857D02*
X142692381Y-109934286D01*
X142692381Y-109648572D02*
X141692381Y-109648572D01*
X141835238Y-109743810D01*
X141930476Y-109839048D01*
X141978095Y-109934286D01*
X141692381Y-108743810D02*
X141692381Y-108648571D01*
X141740000Y-108553333D01*
X141787619Y-108505714D01*
X141882857Y-108458095D01*
X142073333Y-108410476D01*
X142311429Y-108410476D01*
X142501905Y-108458095D01*
X142597143Y-108505714D01*
X142644762Y-108553333D01*
X142692381Y-108648571D01*
X142692381Y-108743810D01*
X142644762Y-108839048D01*
X142597143Y-108886667D01*
X142501905Y-108934286D01*
X142311429Y-108981905D01*
X142073333Y-108981905D01*
X141882857Y-108934286D01*
X141787619Y-108886667D01*
X141740000Y-108839048D01*
X141692381Y-108743810D01*
X142692381Y-107458095D02*
X142692381Y-108029524D01*
X142692381Y-107743810D02*
X141692381Y-107743810D01*
X141835238Y-107839048D01*
X141930476Y-107934286D01*
X141978095Y-108029524D01*
X142787619Y-105695619D02*
X142740000Y-105790857D01*
X142644762Y-105886095D01*
X142501905Y-106028952D01*
X142454286Y-106124191D01*
X142454286Y-106219429D01*
X142692381Y-106171810D02*
X142644762Y-106267048D01*
X142549524Y-106362286D01*
X142359048Y-106409905D01*
X142025714Y-106409905D01*
X141835238Y-106362286D01*
X141740000Y-106267048D01*
X141692381Y-106171810D01*
X141692381Y-105981333D01*
X141740000Y-105886095D01*
X141835238Y-105790857D01*
X142025714Y-105743238D01*
X142359048Y-105743238D01*
X142549524Y-105790857D01*
X142644762Y-105886095D01*
X142692381Y-105981333D01*
X142692381Y-106171810D01*
X142692381Y-104790857D02*
X142692381Y-105362286D01*
X142692381Y-105076572D02*
X141692381Y-105076572D01*
X141835238Y-105171810D01*
X141930476Y-105267048D01*
X141978095Y-105362286D01*
X141692381Y-104171810D02*
X141692381Y-104076571D01*
X141740000Y-103981333D01*
X141787619Y-103933714D01*
X141882857Y-103886095D01*
X142073333Y-103838476D01*
X142311429Y-103838476D01*
X142501905Y-103886095D01*
X142597143Y-103933714D01*
X142644762Y-103981333D01*
X142692381Y-104076571D01*
X142692381Y-104171810D01*
X142644762Y-104267048D01*
X142597143Y-104314667D01*
X142501905Y-104362286D01*
X142311429Y-104409905D01*
X142073333Y-104409905D01*
X141882857Y-104362286D01*
X141787619Y-104314667D01*
X141740000Y-104267048D01*
X141692381Y-104171810D01*
X141787619Y-103457524D02*
X141740000Y-103409905D01*
X141692381Y-103314667D01*
X141692381Y-103076571D01*
X141740000Y-102981333D01*
X141787619Y-102933714D01*
X141882857Y-102886095D01*
X141978095Y-102886095D01*
X142120952Y-102933714D01*
X142692381Y-103505143D01*
X142692381Y-102886095D01*
X142787619Y-101123619D02*
X142740000Y-101218857D01*
X142644762Y-101314095D01*
X142501905Y-101456952D01*
X142454286Y-101552191D01*
X142454286Y-101647429D01*
X142692381Y-101599810D02*
X142644762Y-101695048D01*
X142549524Y-101790286D01*
X142359048Y-101837905D01*
X142025714Y-101837905D01*
X141835238Y-101790286D01*
X141740000Y-101695048D01*
X141692381Y-101599810D01*
X141692381Y-101409333D01*
X141740000Y-101314095D01*
X141835238Y-101218857D01*
X142025714Y-101171238D01*
X142359048Y-101171238D01*
X142549524Y-101218857D01*
X142644762Y-101314095D01*
X142692381Y-101409333D01*
X142692381Y-101599810D01*
X142692381Y-100218857D02*
X142692381Y-100790286D01*
X142692381Y-100504572D02*
X141692381Y-100504572D01*
X141835238Y-100599810D01*
X141930476Y-100695048D01*
X141978095Y-100790286D01*
X141692381Y-99599810D02*
X141692381Y-99504571D01*
X141740000Y-99409333D01*
X141787619Y-99361714D01*
X141882857Y-99314095D01*
X142073333Y-99266476D01*
X142311429Y-99266476D01*
X142501905Y-99314095D01*
X142597143Y-99361714D01*
X142644762Y-99409333D01*
X142692381Y-99504571D01*
X142692381Y-99599810D01*
X142644762Y-99695048D01*
X142597143Y-99742667D01*
X142501905Y-99790286D01*
X142311429Y-99837905D01*
X142073333Y-99837905D01*
X141882857Y-99790286D01*
X141787619Y-99742667D01*
X141740000Y-99695048D01*
X141692381Y-99599810D01*
X141692381Y-98933143D02*
X141692381Y-98314095D01*
X142073333Y-98647429D01*
X142073333Y-98504571D01*
X142120952Y-98409333D01*
X142168571Y-98361714D01*
X142263810Y-98314095D01*
X142501905Y-98314095D01*
X142597143Y-98361714D01*
X142644762Y-98409333D01*
X142692381Y-98504571D01*
X142692381Y-98790286D01*
X142644762Y-98885524D01*
X142597143Y-98933143D01*
X160782286Y-101496762D02*
X160925143Y-101544381D01*
X161163239Y-101544381D01*
X161258477Y-101496762D01*
X161306096Y-101449143D01*
X161353715Y-101353905D01*
X161353715Y-101258667D01*
X161306096Y-101163429D01*
X161258477Y-101115810D01*
X161163239Y-101068190D01*
X160972762Y-101020571D01*
X160877524Y-100972952D01*
X160829905Y-100925333D01*
X160782286Y-100830095D01*
X160782286Y-100734857D01*
X160829905Y-100639619D01*
X160877524Y-100592000D01*
X160972762Y-100544381D01*
X161210858Y-100544381D01*
X161353715Y-100592000D01*
X161687048Y-100544381D02*
X161925143Y-101544381D01*
X162115620Y-100830095D01*
X162306096Y-101544381D01*
X162544191Y-100544381D01*
X163448953Y-101544381D02*
X162877524Y-101544381D01*
X163163238Y-101544381D02*
X163163238Y-100544381D01*
X163068000Y-100687238D01*
X162972762Y-100782476D01*
X162877524Y-100830095D01*
X164068000Y-100544381D02*
X164163239Y-100544381D01*
X164258477Y-100592000D01*
X164306096Y-100639619D01*
X164353715Y-100734857D01*
X164401334Y-100925333D01*
X164401334Y-101163429D01*
X164353715Y-101353905D01*
X164306096Y-101449143D01*
X164258477Y-101496762D01*
X164163239Y-101544381D01*
X164068000Y-101544381D01*
X163972762Y-101496762D01*
X163925143Y-101449143D01*
X163877524Y-101353905D01*
X163829905Y-101163429D01*
X163829905Y-100925333D01*
X163877524Y-100734857D01*
X163925143Y-100639619D01*
X163972762Y-100592000D01*
X164068000Y-100544381D01*
X164782286Y-100639619D02*
X164829905Y-100592000D01*
X164925143Y-100544381D01*
X165163239Y-100544381D01*
X165258477Y-100592000D01*
X165306096Y-100639619D01*
X165353715Y-100734857D01*
X165353715Y-100830095D01*
X165306096Y-100972952D01*
X164734667Y-101544381D01*
X165353715Y-101544381D01*
X125817524Y-94432381D02*
X125817524Y-93432381D01*
X126055619Y-93432381D01*
X126198477Y-93480000D01*
X126293715Y-93575238D01*
X126341334Y-93670476D01*
X126388953Y-93860952D01*
X126388953Y-94003810D01*
X126341334Y-94194286D01*
X126293715Y-94289524D01*
X126198477Y-94384762D01*
X126055619Y-94432381D01*
X125817524Y-94432381D01*
X127341334Y-94432381D02*
X126769905Y-94432381D01*
X127055619Y-94432381D02*
X127055619Y-93432381D01*
X126960381Y-93575238D01*
X126865143Y-93670476D01*
X126769905Y-93718095D01*
X127960381Y-93432381D02*
X128055620Y-93432381D01*
X128150858Y-93480000D01*
X128198477Y-93527619D01*
X128246096Y-93622857D01*
X128293715Y-93813333D01*
X128293715Y-94051429D01*
X128246096Y-94241905D01*
X128198477Y-94337143D01*
X128150858Y-94384762D01*
X128055620Y-94432381D01*
X127960381Y-94432381D01*
X127865143Y-94384762D01*
X127817524Y-94337143D01*
X127769905Y-94241905D01*
X127722286Y-94051429D01*
X127722286Y-93813333D01*
X127769905Y-93622857D01*
X127817524Y-93527619D01*
X127865143Y-93480000D01*
X127960381Y-93432381D01*
X128627048Y-93432381D02*
X129246096Y-93432381D01*
X128912762Y-93813333D01*
X129055620Y-93813333D01*
X129150858Y-93860952D01*
X129198477Y-93908571D01*
X129246096Y-94003810D01*
X129246096Y-94241905D01*
X129198477Y-94337143D01*
X129150858Y-94384762D01*
X129055620Y-94432381D01*
X128769905Y-94432381D01*
X128674667Y-94384762D01*
X128627048Y-94337143D01*
X140184381Y-95162476D02*
X139184381Y-95162476D01*
X139184381Y-94924381D01*
X139232000Y-94781523D01*
X139327238Y-94686285D01*
X139422476Y-94638666D01*
X139612952Y-94591047D01*
X139755810Y-94591047D01*
X139946286Y-94638666D01*
X140041524Y-94686285D01*
X140136762Y-94781523D01*
X140184381Y-94924381D01*
X140184381Y-95162476D01*
X140184381Y-93638666D02*
X140184381Y-94210095D01*
X140184381Y-93924381D02*
X139184381Y-93924381D01*
X139327238Y-94019619D01*
X139422476Y-94114857D01*
X139470095Y-94210095D01*
X139184381Y-93019619D02*
X139184381Y-92924380D01*
X139232000Y-92829142D01*
X139279619Y-92781523D01*
X139374857Y-92733904D01*
X139565333Y-92686285D01*
X139803429Y-92686285D01*
X139993905Y-92733904D01*
X140089143Y-92781523D01*
X140136762Y-92829142D01*
X140184381Y-92924380D01*
X140184381Y-93019619D01*
X140136762Y-93114857D01*
X140089143Y-93162476D01*
X139993905Y-93210095D01*
X139803429Y-93257714D01*
X139565333Y-93257714D01*
X139374857Y-93210095D01*
X139279619Y-93162476D01*
X139232000Y-93114857D01*
X139184381Y-93019619D01*
X139517714Y-91829142D02*
X140184381Y-91829142D01*
X139136762Y-92067238D02*
X139851048Y-92305333D01*
X139851048Y-91686285D01*
X136120381Y-95162476D02*
X135120381Y-95162476D01*
X135120381Y-94924381D01*
X135168000Y-94781523D01*
X135263238Y-94686285D01*
X135358476Y-94638666D01*
X135548952Y-94591047D01*
X135691810Y-94591047D01*
X135882286Y-94638666D01*
X135977524Y-94686285D01*
X136072762Y-94781523D01*
X136120381Y-94924381D01*
X136120381Y-95162476D01*
X136120381Y-93638666D02*
X136120381Y-94210095D01*
X136120381Y-93924381D02*
X135120381Y-93924381D01*
X135263238Y-94019619D01*
X135358476Y-94114857D01*
X135406095Y-94210095D01*
X135120381Y-93019619D02*
X135120381Y-92924380D01*
X135168000Y-92829142D01*
X135215619Y-92781523D01*
X135310857Y-92733904D01*
X135501333Y-92686285D01*
X135739429Y-92686285D01*
X135929905Y-92733904D01*
X136025143Y-92781523D01*
X136072762Y-92829142D01*
X136120381Y-92924380D01*
X136120381Y-93019619D01*
X136072762Y-93114857D01*
X136025143Y-93162476D01*
X135929905Y-93210095D01*
X135739429Y-93257714D01*
X135501333Y-93257714D01*
X135310857Y-93210095D01*
X135215619Y-93162476D01*
X135168000Y-93114857D01*
X135120381Y-93019619D01*
X135120381Y-91781523D02*
X135120381Y-92257714D01*
X135596571Y-92305333D01*
X135548952Y-92257714D01*
X135501333Y-92162476D01*
X135501333Y-91924380D01*
X135548952Y-91829142D01*
X135596571Y-91781523D01*
X135691810Y-91733904D01*
X135929905Y-91733904D01*
X136025143Y-91781523D01*
X136072762Y-91829142D01*
X136120381Y-91924380D01*
X136120381Y-92162476D01*
X136072762Y-92257714D01*
X136025143Y-92305333D01*
X130389524Y-85796381D02*
X130389524Y-84796381D01*
X130627619Y-84796381D01*
X130770477Y-84844000D01*
X130865715Y-84939238D01*
X130913334Y-85034476D01*
X130960953Y-85224952D01*
X130960953Y-85367810D01*
X130913334Y-85558286D01*
X130865715Y-85653524D01*
X130770477Y-85748762D01*
X130627619Y-85796381D01*
X130389524Y-85796381D01*
X131913334Y-85796381D02*
X131341905Y-85796381D01*
X131627619Y-85796381D02*
X131627619Y-84796381D01*
X131532381Y-84939238D01*
X131437143Y-85034476D01*
X131341905Y-85082095D01*
X132532381Y-84796381D02*
X132627620Y-84796381D01*
X132722858Y-84844000D01*
X132770477Y-84891619D01*
X132818096Y-84986857D01*
X132865715Y-85177333D01*
X132865715Y-85415429D01*
X132818096Y-85605905D01*
X132770477Y-85701143D01*
X132722858Y-85748762D01*
X132627620Y-85796381D01*
X132532381Y-85796381D01*
X132437143Y-85748762D01*
X132389524Y-85701143D01*
X132341905Y-85605905D01*
X132294286Y-85415429D01*
X132294286Y-85177333D01*
X132341905Y-84986857D01*
X132389524Y-84891619D01*
X132437143Y-84844000D01*
X132532381Y-84796381D01*
X133818096Y-85796381D02*
X133246667Y-85796381D01*
X133532381Y-85796381D02*
X133532381Y-84796381D01*
X133437143Y-84939238D01*
X133341905Y-85034476D01*
X133246667Y-85082095D01*
X125309524Y-85796381D02*
X125309524Y-84796381D01*
X125547619Y-84796381D01*
X125690477Y-84844000D01*
X125785715Y-84939238D01*
X125833334Y-85034476D01*
X125880953Y-85224952D01*
X125880953Y-85367810D01*
X125833334Y-85558286D01*
X125785715Y-85653524D01*
X125690477Y-85748762D01*
X125547619Y-85796381D01*
X125309524Y-85796381D01*
X126833334Y-85796381D02*
X126261905Y-85796381D01*
X126547619Y-85796381D02*
X126547619Y-84796381D01*
X126452381Y-84939238D01*
X126357143Y-85034476D01*
X126261905Y-85082095D01*
X127452381Y-84796381D02*
X127547620Y-84796381D01*
X127642858Y-84844000D01*
X127690477Y-84891619D01*
X127738096Y-84986857D01*
X127785715Y-85177333D01*
X127785715Y-85415429D01*
X127738096Y-85605905D01*
X127690477Y-85701143D01*
X127642858Y-85748762D01*
X127547620Y-85796381D01*
X127452381Y-85796381D01*
X127357143Y-85748762D01*
X127309524Y-85701143D01*
X127261905Y-85605905D01*
X127214286Y-85415429D01*
X127214286Y-85177333D01*
X127261905Y-84986857D01*
X127309524Y-84891619D01*
X127357143Y-84844000D01*
X127452381Y-84796381D01*
X128166667Y-84891619D02*
X128214286Y-84844000D01*
X128309524Y-84796381D01*
X128547620Y-84796381D01*
X128642858Y-84844000D01*
X128690477Y-84891619D01*
X128738096Y-84986857D01*
X128738096Y-85082095D01*
X128690477Y-85224952D01*
X128119048Y-85796381D01*
X128738096Y-85796381D01*
X126388953Y-98678381D02*
X126055619Y-98202190D01*
X125817524Y-98678381D02*
X125817524Y-97678381D01*
X126198477Y-97678381D01*
X126293715Y-97726000D01*
X126341334Y-97773619D01*
X126388953Y-97868857D01*
X126388953Y-98011714D01*
X126341334Y-98106952D01*
X126293715Y-98154571D01*
X126198477Y-98202190D01*
X125817524Y-98202190D01*
X127341334Y-98678381D02*
X126769905Y-98678381D01*
X127055619Y-98678381D02*
X127055619Y-97678381D01*
X126960381Y-97821238D01*
X126865143Y-97916476D01*
X126769905Y-97964095D01*
X127960381Y-97678381D02*
X128055620Y-97678381D01*
X128150858Y-97726000D01*
X128198477Y-97773619D01*
X128246096Y-97868857D01*
X128293715Y-98059333D01*
X128293715Y-98297429D01*
X128246096Y-98487905D01*
X128198477Y-98583143D01*
X128150858Y-98630762D01*
X128055620Y-98678381D01*
X127960381Y-98678381D01*
X127865143Y-98630762D01*
X127817524Y-98583143D01*
X127769905Y-98487905D01*
X127722286Y-98297429D01*
X127722286Y-98059333D01*
X127769905Y-97868857D01*
X127817524Y-97773619D01*
X127865143Y-97726000D01*
X127960381Y-97678381D01*
X128674667Y-97773619D02*
X128722286Y-97726000D01*
X128817524Y-97678381D01*
X129055620Y-97678381D01*
X129150858Y-97726000D01*
X129198477Y-97773619D01*
X129246096Y-97868857D01*
X129246096Y-97964095D01*
X129198477Y-98106952D01*
X128627048Y-98678381D01*
X129246096Y-98678381D01*
X140152381Y-89003047D02*
X139676190Y-89336381D01*
X140152381Y-89574476D02*
X139152381Y-89574476D01*
X139152381Y-89193523D01*
X139200000Y-89098285D01*
X139247619Y-89050666D01*
X139342857Y-89003047D01*
X139485714Y-89003047D01*
X139580952Y-89050666D01*
X139628571Y-89098285D01*
X139676190Y-89193523D01*
X139676190Y-89574476D01*
X140152381Y-88050666D02*
X140152381Y-88622095D01*
X140152381Y-88336381D02*
X139152381Y-88336381D01*
X139295238Y-88431619D01*
X139390476Y-88526857D01*
X139438095Y-88622095D01*
X139152381Y-87431619D02*
X139152381Y-87336380D01*
X139200000Y-87241142D01*
X139247619Y-87193523D01*
X139342857Y-87145904D01*
X139533333Y-87098285D01*
X139771429Y-87098285D01*
X139961905Y-87145904D01*
X140057143Y-87193523D01*
X140104762Y-87241142D01*
X140152381Y-87336380D01*
X140152381Y-87431619D01*
X140104762Y-87526857D01*
X140057143Y-87574476D01*
X139961905Y-87622095D01*
X139771429Y-87669714D01*
X139533333Y-87669714D01*
X139342857Y-87622095D01*
X139247619Y-87574476D01*
X139200000Y-87526857D01*
X139152381Y-87431619D01*
X139152381Y-86764952D02*
X139152381Y-86145904D01*
X139533333Y-86479238D01*
X139533333Y-86336380D01*
X139580952Y-86241142D01*
X139628571Y-86193523D01*
X139723810Y-86145904D01*
X139961905Y-86145904D01*
X140057143Y-86193523D01*
X140104762Y-86241142D01*
X140152381Y-86336380D01*
X140152381Y-86622095D01*
X140104762Y-86717333D01*
X140057143Y-86764952D01*
X131468953Y-98678381D02*
X131135619Y-98202190D01*
X130897524Y-98678381D02*
X130897524Y-97678381D01*
X131278477Y-97678381D01*
X131373715Y-97726000D01*
X131421334Y-97773619D01*
X131468953Y-97868857D01*
X131468953Y-98011714D01*
X131421334Y-98106952D01*
X131373715Y-98154571D01*
X131278477Y-98202190D01*
X130897524Y-98202190D01*
X132421334Y-98678381D02*
X131849905Y-98678381D01*
X132135619Y-98678381D02*
X132135619Y-97678381D01*
X132040381Y-97821238D01*
X131945143Y-97916476D01*
X131849905Y-97964095D01*
X133040381Y-97678381D02*
X133135620Y-97678381D01*
X133230858Y-97726000D01*
X133278477Y-97773619D01*
X133326096Y-97868857D01*
X133373715Y-98059333D01*
X133373715Y-98297429D01*
X133326096Y-98487905D01*
X133278477Y-98583143D01*
X133230858Y-98630762D01*
X133135620Y-98678381D01*
X133040381Y-98678381D01*
X132945143Y-98630762D01*
X132897524Y-98583143D01*
X132849905Y-98487905D01*
X132802286Y-98297429D01*
X132802286Y-98059333D01*
X132849905Y-97868857D01*
X132897524Y-97773619D01*
X132945143Y-97726000D01*
X133040381Y-97678381D01*
X134230858Y-98011714D02*
X134230858Y-98678381D01*
X133992762Y-97630762D02*
X133754667Y-98345048D01*
X134373715Y-98345048D01*
X131468953Y-94432381D02*
X131135619Y-93956190D01*
X130897524Y-94432381D02*
X130897524Y-93432381D01*
X131278477Y-93432381D01*
X131373715Y-93480000D01*
X131421334Y-93527619D01*
X131468953Y-93622857D01*
X131468953Y-93765714D01*
X131421334Y-93860952D01*
X131373715Y-93908571D01*
X131278477Y-93956190D01*
X130897524Y-93956190D01*
X132421334Y-94432381D02*
X131849905Y-94432381D01*
X132135619Y-94432381D02*
X132135619Y-93432381D01*
X132040381Y-93575238D01*
X131945143Y-93670476D01*
X131849905Y-93718095D01*
X133040381Y-93432381D02*
X133135620Y-93432381D01*
X133230858Y-93480000D01*
X133278477Y-93527619D01*
X133326096Y-93622857D01*
X133373715Y-93813333D01*
X133373715Y-94051429D01*
X133326096Y-94241905D01*
X133278477Y-94337143D01*
X133230858Y-94384762D01*
X133135620Y-94432381D01*
X133040381Y-94432381D01*
X132945143Y-94384762D01*
X132897524Y-94337143D01*
X132849905Y-94241905D01*
X132802286Y-94051429D01*
X132802286Y-93813333D01*
X132849905Y-93622857D01*
X132897524Y-93527619D01*
X132945143Y-93480000D01*
X133040381Y-93432381D01*
X134278477Y-93432381D02*
X133802286Y-93432381D01*
X133754667Y-93908571D01*
X133802286Y-93860952D01*
X133897524Y-93813333D01*
X134135620Y-93813333D01*
X134230858Y-93860952D01*
X134278477Y-93908571D01*
X134326096Y-94003810D01*
X134326096Y-94241905D01*
X134278477Y-94337143D01*
X134230858Y-94384762D01*
X134135620Y-94432381D01*
X133897524Y-94432381D01*
X133802286Y-94384762D01*
X133754667Y-94337143D01*
X136088381Y-89003047D02*
X135612190Y-89336381D01*
X136088381Y-89574476D02*
X135088381Y-89574476D01*
X135088381Y-89193523D01*
X135136000Y-89098285D01*
X135183619Y-89050666D01*
X135278857Y-89003047D01*
X135421714Y-89003047D01*
X135516952Y-89050666D01*
X135564571Y-89098285D01*
X135612190Y-89193523D01*
X135612190Y-89574476D01*
X136088381Y-88050666D02*
X136088381Y-88622095D01*
X136088381Y-88336381D02*
X135088381Y-88336381D01*
X135231238Y-88431619D01*
X135326476Y-88526857D01*
X135374095Y-88622095D01*
X135088381Y-87431619D02*
X135088381Y-87336380D01*
X135136000Y-87241142D01*
X135183619Y-87193523D01*
X135278857Y-87145904D01*
X135469333Y-87098285D01*
X135707429Y-87098285D01*
X135897905Y-87145904D01*
X135993143Y-87193523D01*
X136040762Y-87241142D01*
X136088381Y-87336380D01*
X136088381Y-87431619D01*
X136040762Y-87526857D01*
X135993143Y-87574476D01*
X135897905Y-87622095D01*
X135707429Y-87669714D01*
X135469333Y-87669714D01*
X135278857Y-87622095D01*
X135183619Y-87574476D01*
X135136000Y-87526857D01*
X135088381Y-87431619D01*
X135088381Y-86241142D02*
X135088381Y-86431619D01*
X135136000Y-86526857D01*
X135183619Y-86574476D01*
X135326476Y-86669714D01*
X135516952Y-86717333D01*
X135897905Y-86717333D01*
X135993143Y-86669714D01*
X136040762Y-86622095D01*
X136088381Y-86526857D01*
X136088381Y-86336380D01*
X136040762Y-86241142D01*
X135993143Y-86193523D01*
X135897905Y-86145904D01*
X135659810Y-86145904D01*
X135564571Y-86193523D01*
X135516952Y-86241142D01*
X135469333Y-86336380D01*
X135469333Y-86526857D01*
X135516952Y-86622095D01*
X135564571Y-86669714D01*
X135659810Y-86717333D01*
X126388953Y-124404381D02*
X126055619Y-123928190D01*
X125817524Y-124404381D02*
X125817524Y-123404381D01*
X126198477Y-123404381D01*
X126293715Y-123452000D01*
X126341334Y-123499619D01*
X126388953Y-123594857D01*
X126388953Y-123737714D01*
X126341334Y-123832952D01*
X126293715Y-123880571D01*
X126198477Y-123928190D01*
X125817524Y-123928190D01*
X127341334Y-124404381D02*
X126769905Y-124404381D01*
X127055619Y-124404381D02*
X127055619Y-123404381D01*
X126960381Y-123547238D01*
X126865143Y-123642476D01*
X126769905Y-123690095D01*
X127960381Y-123404381D02*
X128055620Y-123404381D01*
X128150858Y-123452000D01*
X128198477Y-123499619D01*
X128246096Y-123594857D01*
X128293715Y-123785333D01*
X128293715Y-124023429D01*
X128246096Y-124213905D01*
X128198477Y-124309143D01*
X128150858Y-124356762D01*
X128055620Y-124404381D01*
X127960381Y-124404381D01*
X127865143Y-124356762D01*
X127817524Y-124309143D01*
X127769905Y-124213905D01*
X127722286Y-124023429D01*
X127722286Y-123785333D01*
X127769905Y-123594857D01*
X127817524Y-123499619D01*
X127865143Y-123452000D01*
X127960381Y-123404381D01*
X128627048Y-123404381D02*
X129293715Y-123404381D01*
X128865143Y-124404381D01*
X132484953Y-120158381D02*
X132151619Y-119682190D01*
X131913524Y-120158381D02*
X131913524Y-119158381D01*
X132294477Y-119158381D01*
X132389715Y-119206000D01*
X132437334Y-119253619D01*
X132484953Y-119348857D01*
X132484953Y-119491714D01*
X132437334Y-119586952D01*
X132389715Y-119634571D01*
X132294477Y-119682190D01*
X131913524Y-119682190D01*
X133437334Y-120158381D02*
X132865905Y-120158381D01*
X133151619Y-120158381D02*
X133151619Y-119158381D01*
X133056381Y-119301238D01*
X132961143Y-119396476D01*
X132865905Y-119444095D01*
X134056381Y-119158381D02*
X134151620Y-119158381D01*
X134246858Y-119206000D01*
X134294477Y-119253619D01*
X134342096Y-119348857D01*
X134389715Y-119539333D01*
X134389715Y-119777429D01*
X134342096Y-119967905D01*
X134294477Y-120063143D01*
X134246858Y-120110762D01*
X134151620Y-120158381D01*
X134056381Y-120158381D01*
X133961143Y-120110762D01*
X133913524Y-120063143D01*
X133865905Y-119967905D01*
X133818286Y-119777429D01*
X133818286Y-119539333D01*
X133865905Y-119348857D01*
X133913524Y-119253619D01*
X133961143Y-119206000D01*
X134056381Y-119158381D01*
X134961143Y-119586952D02*
X134865905Y-119539333D01*
X134818286Y-119491714D01*
X134770667Y-119396476D01*
X134770667Y-119348857D01*
X134818286Y-119253619D01*
X134865905Y-119206000D01*
X134961143Y-119158381D01*
X135151620Y-119158381D01*
X135246858Y-119206000D01*
X135294477Y-119253619D01*
X135342096Y-119348857D01*
X135342096Y-119396476D01*
X135294477Y-119491714D01*
X135246858Y-119539333D01*
X135151620Y-119586952D01*
X134961143Y-119586952D01*
X134865905Y-119634571D01*
X134818286Y-119682190D01*
X134770667Y-119777429D01*
X134770667Y-119967905D01*
X134818286Y-120063143D01*
X134865905Y-120110762D01*
X134961143Y-120158381D01*
X135151620Y-120158381D01*
X135246858Y-120110762D01*
X135294477Y-120063143D01*
X135342096Y-119967905D01*
X135342096Y-119777429D01*
X135294477Y-119682190D01*
X135246858Y-119634571D01*
X135151620Y-119586952D01*
X126388953Y-120340381D02*
X126055619Y-119864190D01*
X125817524Y-120340381D02*
X125817524Y-119340381D01*
X126198477Y-119340381D01*
X126293715Y-119388000D01*
X126341334Y-119435619D01*
X126388953Y-119530857D01*
X126388953Y-119673714D01*
X126341334Y-119768952D01*
X126293715Y-119816571D01*
X126198477Y-119864190D01*
X125817524Y-119864190D01*
X127341334Y-120340381D02*
X126769905Y-120340381D01*
X127055619Y-120340381D02*
X127055619Y-119340381D01*
X126960381Y-119483238D01*
X126865143Y-119578476D01*
X126769905Y-119626095D01*
X127960381Y-119340381D02*
X128055620Y-119340381D01*
X128150858Y-119388000D01*
X128198477Y-119435619D01*
X128246096Y-119530857D01*
X128293715Y-119721333D01*
X128293715Y-119959429D01*
X128246096Y-120149905D01*
X128198477Y-120245143D01*
X128150858Y-120292762D01*
X128055620Y-120340381D01*
X127960381Y-120340381D01*
X127865143Y-120292762D01*
X127817524Y-120245143D01*
X127769905Y-120149905D01*
X127722286Y-119959429D01*
X127722286Y-119721333D01*
X127769905Y-119530857D01*
X127817524Y-119435619D01*
X127865143Y-119388000D01*
X127960381Y-119340381D01*
X128769905Y-120340381D02*
X128960381Y-120340381D01*
X129055620Y-120292762D01*
X129103239Y-120245143D01*
X129198477Y-120102286D01*
X129246096Y-119911810D01*
X129246096Y-119530857D01*
X129198477Y-119435619D01*
X129150858Y-119388000D01*
X129055620Y-119340381D01*
X128865143Y-119340381D01*
X128769905Y-119388000D01*
X128722286Y-119435619D01*
X128674667Y-119530857D01*
X128674667Y-119768952D01*
X128722286Y-119864190D01*
X128769905Y-119911810D01*
X128865143Y-119959429D01*
X129055620Y-119959429D01*
X129150858Y-119911810D01*
X129198477Y-119864190D01*
X129246096Y-119768952D01*
X132484953Y-124222381D02*
X132151619Y-123746190D01*
X131913524Y-124222381D02*
X131913524Y-123222381D01*
X132294477Y-123222381D01*
X132389715Y-123270000D01*
X132437334Y-123317619D01*
X132484953Y-123412857D01*
X132484953Y-123555714D01*
X132437334Y-123650952D01*
X132389715Y-123698571D01*
X132294477Y-123746190D01*
X131913524Y-123746190D01*
X133437334Y-124222381D02*
X132865905Y-124222381D01*
X133151619Y-124222381D02*
X133151619Y-123222381D01*
X133056381Y-123365238D01*
X132961143Y-123460476D01*
X132865905Y-123508095D01*
X134389715Y-124222381D02*
X133818286Y-124222381D01*
X134104000Y-124222381D02*
X134104000Y-123222381D01*
X134008762Y-123365238D01*
X133913524Y-123460476D01*
X133818286Y-123508095D01*
X135008762Y-123222381D02*
X135104001Y-123222381D01*
X135199239Y-123270000D01*
X135246858Y-123317619D01*
X135294477Y-123412857D01*
X135342096Y-123603333D01*
X135342096Y-123841429D01*
X135294477Y-124031905D01*
X135246858Y-124127143D01*
X135199239Y-124174762D01*
X135104001Y-124222381D01*
X135008762Y-124222381D01*
X134913524Y-124174762D01*
X134865905Y-124127143D01*
X134818286Y-124031905D01*
X134770667Y-123841429D01*
X134770667Y-123603333D01*
X134818286Y-123412857D01*
X134865905Y-123317619D01*
X134913524Y-123270000D01*
X135008762Y-123222381D01*
X126714381Y-103667619D02*
X126619143Y-103620000D01*
X126523905Y-103524762D01*
X126381048Y-103381905D01*
X126285809Y-103334286D01*
X126190571Y-103334286D01*
X126238190Y-103572381D02*
X126142952Y-103524762D01*
X126047714Y-103429524D01*
X126000095Y-103239048D01*
X126000095Y-102905714D01*
X126047714Y-102715238D01*
X126142952Y-102620000D01*
X126238190Y-102572381D01*
X126428667Y-102572381D01*
X126523905Y-102620000D01*
X126619143Y-102715238D01*
X126666762Y-102905714D01*
X126666762Y-103239048D01*
X126619143Y-103429524D01*
X126523905Y-103524762D01*
X126428667Y-103572381D01*
X126238190Y-103572381D01*
X127619143Y-103572381D02*
X127047714Y-103572381D01*
X127333428Y-103572381D02*
X127333428Y-102572381D01*
X127238190Y-102715238D01*
X127142952Y-102810476D01*
X127047714Y-102858095D01*
X128238190Y-102572381D02*
X128333429Y-102572381D01*
X128428667Y-102620000D01*
X128476286Y-102667619D01*
X128523905Y-102762857D01*
X128571524Y-102953333D01*
X128571524Y-103191429D01*
X128523905Y-103381905D01*
X128476286Y-103477143D01*
X128428667Y-103524762D01*
X128333429Y-103572381D01*
X128238190Y-103572381D01*
X128142952Y-103524762D01*
X128095333Y-103477143D01*
X128047714Y-103381905D01*
X128000095Y-103191429D01*
X128000095Y-102953333D01*
X128047714Y-102762857D01*
X128095333Y-102667619D01*
X128142952Y-102620000D01*
X128238190Y-102572381D01*
X129428667Y-102905714D02*
X129428667Y-103572381D01*
X129190571Y-102524762D02*
X128952476Y-103239048D01*
X129571524Y-103239048D01*
X126714381Y-110271619D02*
X126619143Y-110224000D01*
X126523905Y-110128762D01*
X126381048Y-109985905D01*
X126285809Y-109938286D01*
X126190571Y-109938286D01*
X126238190Y-110176381D02*
X126142952Y-110128762D01*
X126047714Y-110033524D01*
X126000095Y-109843048D01*
X126000095Y-109509714D01*
X126047714Y-109319238D01*
X126142952Y-109224000D01*
X126238190Y-109176381D01*
X126428667Y-109176381D01*
X126523905Y-109224000D01*
X126619143Y-109319238D01*
X126666762Y-109509714D01*
X126666762Y-109843048D01*
X126619143Y-110033524D01*
X126523905Y-110128762D01*
X126428667Y-110176381D01*
X126238190Y-110176381D01*
X127619143Y-110176381D02*
X127047714Y-110176381D01*
X127333428Y-110176381D02*
X127333428Y-109176381D01*
X127238190Y-109319238D01*
X127142952Y-109414476D01*
X127047714Y-109462095D01*
X128238190Y-109176381D02*
X128333429Y-109176381D01*
X128428667Y-109224000D01*
X128476286Y-109271619D01*
X128523905Y-109366857D01*
X128571524Y-109557333D01*
X128571524Y-109795429D01*
X128523905Y-109985905D01*
X128476286Y-110081143D01*
X128428667Y-110128762D01*
X128333429Y-110176381D01*
X128238190Y-110176381D01*
X128142952Y-110128762D01*
X128095333Y-110081143D01*
X128047714Y-109985905D01*
X128000095Y-109795429D01*
X128000095Y-109557333D01*
X128047714Y-109366857D01*
X128095333Y-109271619D01*
X128142952Y-109224000D01*
X128238190Y-109176381D01*
X129476286Y-109176381D02*
X129000095Y-109176381D01*
X128952476Y-109652571D01*
X129000095Y-109604952D01*
X129095333Y-109557333D01*
X129333429Y-109557333D01*
X129428667Y-109604952D01*
X129476286Y-109652571D01*
X129523905Y-109747810D01*
X129523905Y-109985905D01*
X129476286Y-110081143D01*
X129428667Y-110128762D01*
X129333429Y-110176381D01*
X129095333Y-110176381D01*
X129000095Y-110128762D01*
X128952476Y-110081143D01*
X132302381Y-110271619D02*
X132207143Y-110224000D01*
X132111905Y-110128762D01*
X131969048Y-109985905D01*
X131873809Y-109938286D01*
X131778571Y-109938286D01*
X131826190Y-110176381D02*
X131730952Y-110128762D01*
X131635714Y-110033524D01*
X131588095Y-109843048D01*
X131588095Y-109509714D01*
X131635714Y-109319238D01*
X131730952Y-109224000D01*
X131826190Y-109176381D01*
X132016667Y-109176381D01*
X132111905Y-109224000D01*
X132207143Y-109319238D01*
X132254762Y-109509714D01*
X132254762Y-109843048D01*
X132207143Y-110033524D01*
X132111905Y-110128762D01*
X132016667Y-110176381D01*
X131826190Y-110176381D01*
X133207143Y-110176381D02*
X132635714Y-110176381D01*
X132921428Y-110176381D02*
X132921428Y-109176381D01*
X132826190Y-109319238D01*
X132730952Y-109414476D01*
X132635714Y-109462095D01*
X133826190Y-109176381D02*
X133921429Y-109176381D01*
X134016667Y-109224000D01*
X134064286Y-109271619D01*
X134111905Y-109366857D01*
X134159524Y-109557333D01*
X134159524Y-109795429D01*
X134111905Y-109985905D01*
X134064286Y-110081143D01*
X134016667Y-110128762D01*
X133921429Y-110176381D01*
X133826190Y-110176381D01*
X133730952Y-110128762D01*
X133683333Y-110081143D01*
X133635714Y-109985905D01*
X133588095Y-109795429D01*
X133588095Y-109557333D01*
X133635714Y-109366857D01*
X133683333Y-109271619D01*
X133730952Y-109224000D01*
X133826190Y-109176381D01*
X135016667Y-109176381D02*
X134826190Y-109176381D01*
X134730952Y-109224000D01*
X134683333Y-109271619D01*
X134588095Y-109414476D01*
X134540476Y-109604952D01*
X134540476Y-109985905D01*
X134588095Y-110081143D01*
X134635714Y-110128762D01*
X134730952Y-110176381D01*
X134921429Y-110176381D01*
X135016667Y-110128762D01*
X135064286Y-110081143D01*
X135111905Y-109985905D01*
X135111905Y-109747810D01*
X135064286Y-109652571D01*
X135016667Y-109604952D01*
X134921429Y-109557333D01*
X134730952Y-109557333D01*
X134635714Y-109604952D01*
X134588095Y-109652571D01*
X134540476Y-109747810D01*
X132810381Y-103667619D02*
X132715143Y-103620000D01*
X132619905Y-103524762D01*
X132477048Y-103381905D01*
X132381809Y-103334286D01*
X132286571Y-103334286D01*
X132334190Y-103572381D02*
X132238952Y-103524762D01*
X132143714Y-103429524D01*
X132096095Y-103239048D01*
X132096095Y-102905714D01*
X132143714Y-102715238D01*
X132238952Y-102620000D01*
X132334190Y-102572381D01*
X132524667Y-102572381D01*
X132619905Y-102620000D01*
X132715143Y-102715238D01*
X132762762Y-102905714D01*
X132762762Y-103239048D01*
X132715143Y-103429524D01*
X132619905Y-103524762D01*
X132524667Y-103572381D01*
X132334190Y-103572381D01*
X133715143Y-103572381D02*
X133143714Y-103572381D01*
X133429428Y-103572381D02*
X133429428Y-102572381D01*
X133334190Y-102715238D01*
X133238952Y-102810476D01*
X133143714Y-102858095D01*
X134334190Y-102572381D02*
X134429429Y-102572381D01*
X134524667Y-102620000D01*
X134572286Y-102667619D01*
X134619905Y-102762857D01*
X134667524Y-102953333D01*
X134667524Y-103191429D01*
X134619905Y-103381905D01*
X134572286Y-103477143D01*
X134524667Y-103524762D01*
X134429429Y-103572381D01*
X134334190Y-103572381D01*
X134238952Y-103524762D01*
X134191333Y-103477143D01*
X134143714Y-103381905D01*
X134096095Y-103191429D01*
X134096095Y-102953333D01*
X134143714Y-102762857D01*
X134191333Y-102667619D01*
X134238952Y-102620000D01*
X134334190Y-102572381D01*
X135000857Y-102572381D02*
X135667524Y-102572381D01*
X135238952Y-103572381D01*
M02*
