G04 #@! TF.FileFunction,Copper,L2,Bot,Signal*
%FSLAX46Y46*%
G04 Gerber Fmt 4.6, Leading zero omitted, Abs format (unit mm)*
G04 Created by KiCad (PCBNEW 4.0.7) date 07/23/18 16:16:28*
%MOMM*%
%LPD*%
G01*
G04 APERTURE LIST*
%ADD10C,0.100000*%
%ADD11R,3.000000X1.500000*%
%ADD12O,3.000000X1.500000*%
%ADD13R,1.500000X3.000000*%
%ADD14O,1.500000X3.000000*%
%ADD15R,1.800000X1.800000*%
%ADD16O,1.800000X1.800000*%
%ADD17C,1.600000*%
%ADD18O,1.600000X1.600000*%
%ADD19C,2.032000*%
%ADD20C,0.600000*%
%ADD21C,0.400000*%
%ADD22C,0.254000*%
G04 APERTURE END LIST*
D10*
D11*
X126492000Y-61862000D03*
D12*
X126492000Y-64362000D03*
X126492000Y-66862000D03*
X126492000Y-69362000D03*
X126492000Y-71862000D03*
X126492000Y-74362000D03*
X126492000Y-76862000D03*
X126492000Y-79362000D03*
D13*
X162520000Y-61468000D03*
D14*
X160020000Y-61468000D03*
X157520000Y-61468000D03*
D15*
X125984000Y-106172000D03*
D16*
X128524000Y-106172000D03*
X131064000Y-106172000D03*
D15*
X125984000Y-111760000D03*
D16*
X128524000Y-111760000D03*
X131064000Y-111760000D03*
D15*
X136652000Y-111760000D03*
D16*
X139192000Y-111760000D03*
X141732000Y-111760000D03*
D15*
X136652000Y-106172000D03*
D16*
X139192000Y-106172000D03*
X141732000Y-106172000D03*
D17*
X133096000Y-77216000D03*
D18*
X133096000Y-67056000D03*
D19*
X157416500Y-105727500D03*
X157416500Y-115887500D03*
X157416500Y-110807500D03*
X157416500Y-78295500D03*
X157416500Y-88455500D03*
X157416500Y-83375500D03*
D20*
X123952000Y-94996000D03*
X123952000Y-86868000D03*
X137668000Y-73660000D03*
X137668000Y-79248000D03*
X135128000Y-91948000D03*
X143764000Y-91948000D03*
X130048000Y-86868000D03*
X129540000Y-77216000D03*
X149860000Y-89916000D03*
X127508000Y-89916000D03*
X126492000Y-83312000D03*
X123952000Y-79756000D03*
X141224000Y-99060000D03*
X135636000Y-101600000D03*
X144272000Y-109220000D03*
X144272000Y-105664000D03*
X145796000Y-100584000D03*
X145796000Y-98044000D03*
X146304000Y-72644000D03*
X133096000Y-72644000D03*
X131064000Y-109220000D03*
X149860000Y-105664000D03*
X132588000Y-116332000D03*
X128524000Y-116332000D03*
D21*
X123952000Y-86868000D02*
X123952000Y-94996000D01*
X137668000Y-79248000D02*
X137668000Y-73660000D01*
X135128000Y-91948000D02*
X143764000Y-91948000D01*
X130048000Y-77724000D02*
X130048000Y-86868000D01*
X129540000Y-77216000D02*
X130048000Y-77724000D01*
X127508000Y-89916000D02*
X149860000Y-89916000D01*
X126492000Y-82296000D02*
X126492000Y-83312000D01*
X123952000Y-79756000D02*
X126492000Y-82296000D01*
X138176000Y-99060000D02*
X141224000Y-99060000D01*
X135636000Y-101600000D02*
X138176000Y-99060000D01*
X144272000Y-105664000D02*
X144272000Y-109220000D01*
X145796000Y-98044000D02*
X145796000Y-100584000D01*
X133096000Y-72644000D02*
X146304000Y-72644000D01*
X158496000Y-69088000D02*
X158496000Y-65024000D01*
X162520000Y-63032000D02*
X162520000Y-61468000D01*
X161544000Y-64008000D02*
X162520000Y-63032000D01*
X159512000Y-64008000D02*
X161544000Y-64008000D01*
X158496000Y-65024000D02*
X159512000Y-64008000D01*
X147828000Y-103632000D02*
X148336000Y-103632000D01*
X151892000Y-100076000D02*
X151892000Y-99568000D01*
X148336000Y-103632000D02*
X151892000Y-100076000D01*
X151892000Y-75692000D02*
X155448000Y-72136000D01*
X151892000Y-99568000D02*
X151892000Y-75692000D01*
X139192000Y-106172000D02*
X139192000Y-105156000D01*
X155448000Y-72136000D02*
X158496000Y-69088000D01*
X140716000Y-103632000D02*
X147828000Y-103632000D01*
X139192000Y-105156000D02*
X140716000Y-103632000D01*
X139192000Y-111760000D02*
X139192000Y-106172000D01*
X147828000Y-102616000D02*
X150876000Y-99568000D01*
X150876000Y-75184000D02*
X154432000Y-71628000D01*
X150876000Y-99568000D02*
X150876000Y-75184000D01*
X128524000Y-106172000D02*
X128524000Y-103632000D01*
X157520000Y-68540000D02*
X157520000Y-61468000D01*
X154432000Y-71628000D02*
X157520000Y-68540000D01*
X129540000Y-102616000D02*
X147828000Y-102616000D01*
X128524000Y-103632000D02*
X129540000Y-102616000D01*
X128524000Y-111760000D02*
X128524000Y-106172000D01*
X131064000Y-109220000D02*
X131064000Y-106172000D01*
X146812000Y-113792000D02*
X148844000Y-113792000D01*
X149860000Y-112776000D02*
X149860000Y-105664000D01*
X148844000Y-113792000D02*
X149860000Y-112776000D01*
X145288000Y-113792000D02*
X146812000Y-113792000D01*
X143256000Y-113792000D02*
X145288000Y-113792000D01*
X135128000Y-113792000D02*
X132588000Y-116332000D01*
X143256000Y-113792000D02*
X135128000Y-113792000D01*
X131064000Y-111760000D02*
X131064000Y-113792000D01*
X131064000Y-113792000D02*
X128524000Y-116332000D01*
D22*
G36*
X166838000Y-131278000D02*
X122722000Y-131278000D01*
X122722000Y-127508000D01*
X140944808Y-127508000D01*
X141116155Y-128369420D01*
X141604111Y-129099697D01*
X142334388Y-129587653D01*
X143195808Y-129759000D01*
X146364192Y-129759000D01*
X147225612Y-129587653D01*
X147955889Y-129099697D01*
X148443845Y-128369420D01*
X148615192Y-127508000D01*
X148443845Y-126646580D01*
X147955889Y-125916303D01*
X147225612Y-125428347D01*
X146364192Y-125257000D01*
X143195808Y-125257000D01*
X142334388Y-125428347D01*
X141604111Y-125916303D01*
X141116155Y-126646580D01*
X140944808Y-127508000D01*
X122722000Y-127508000D01*
X122722000Y-110860000D01*
X124342758Y-110860000D01*
X124342758Y-112660000D01*
X124393451Y-112929410D01*
X124552672Y-113176846D01*
X124795615Y-113342843D01*
X125084000Y-113401242D01*
X126884000Y-113401242D01*
X127153410Y-113350549D01*
X127400846Y-113191328D01*
X127514050Y-113025649D01*
X127869499Y-113263152D01*
X128492125Y-113387000D01*
X128555875Y-113387000D01*
X129178501Y-113263152D01*
X129706338Y-112910463D01*
X129794000Y-112779267D01*
X129881662Y-112910463D01*
X130137000Y-113081074D01*
X130137000Y-113408024D01*
X128183582Y-115361442D01*
X127943011Y-115460844D01*
X127653860Y-115749492D01*
X127497179Y-116126821D01*
X127496822Y-116535387D01*
X127652844Y-116912989D01*
X127941492Y-117202140D01*
X128318821Y-117358821D01*
X128727387Y-117359178D01*
X129104989Y-117203156D01*
X129394140Y-116914508D01*
X129494741Y-116672235D01*
X131719488Y-114447488D01*
X131745208Y-114408995D01*
X131920436Y-114146748D01*
X131991000Y-113792000D01*
X131991000Y-113081074D01*
X132246338Y-112910463D01*
X132599027Y-112382626D01*
X132722875Y-111760000D01*
X132599027Y-111137374D01*
X132246338Y-110609537D01*
X131718501Y-110256848D01*
X131398185Y-110193133D01*
X131644989Y-110091156D01*
X131934140Y-109802508D01*
X132090821Y-109425179D01*
X132091178Y-109016613D01*
X131991000Y-108774164D01*
X131991000Y-107493074D01*
X132246338Y-107322463D01*
X132599027Y-106794626D01*
X132666035Y-106457750D01*
X135117000Y-106457750D01*
X135117000Y-107198310D01*
X135213673Y-107431699D01*
X135392302Y-107610327D01*
X135625691Y-107707000D01*
X136366250Y-107707000D01*
X136525000Y-107548250D01*
X136525000Y-106299000D01*
X135275750Y-106299000D01*
X135117000Y-106457750D01*
X132666035Y-106457750D01*
X132722875Y-106172000D01*
X132599027Y-105549374D01*
X132329295Y-105145690D01*
X135117000Y-105145690D01*
X135117000Y-105886250D01*
X135275750Y-106045000D01*
X136525000Y-106045000D01*
X136525000Y-104795750D01*
X136366250Y-104637000D01*
X135625691Y-104637000D01*
X135392302Y-104733673D01*
X135213673Y-104912301D01*
X135117000Y-105145690D01*
X132329295Y-105145690D01*
X132246338Y-105021537D01*
X131718501Y-104668848D01*
X131095875Y-104545000D01*
X131032125Y-104545000D01*
X130409499Y-104668848D01*
X129881662Y-105021537D01*
X129794000Y-105152733D01*
X129706338Y-105021537D01*
X129451000Y-104850926D01*
X129451000Y-104015976D01*
X129923976Y-103543000D01*
X139494024Y-103543000D01*
X138536512Y-104500512D01*
X138335564Y-104801252D01*
X138334985Y-104804163D01*
X138108280Y-104955643D01*
X138090327Y-104912301D01*
X137911698Y-104733673D01*
X137678309Y-104637000D01*
X136937750Y-104637000D01*
X136779000Y-104795750D01*
X136779000Y-106045000D01*
X136799000Y-106045000D01*
X136799000Y-106299000D01*
X136779000Y-106299000D01*
X136779000Y-107548250D01*
X136937750Y-107707000D01*
X137678309Y-107707000D01*
X137911698Y-107610327D01*
X138090327Y-107431699D01*
X138108280Y-107388357D01*
X138265000Y-107493074D01*
X138265000Y-110438926D01*
X138181051Y-110495019D01*
X138083328Y-110343154D01*
X137840385Y-110177157D01*
X137552000Y-110118758D01*
X135752000Y-110118758D01*
X135482590Y-110169451D01*
X135235154Y-110328672D01*
X135069157Y-110571615D01*
X135010758Y-110860000D01*
X135010758Y-112660000D01*
X135052170Y-112880084D01*
X134773252Y-112935564D01*
X134481140Y-113130747D01*
X134472512Y-113136512D01*
X132247582Y-115361442D01*
X132007011Y-115460844D01*
X131717860Y-115749492D01*
X131561179Y-116126821D01*
X131560822Y-116535387D01*
X131716844Y-116912989D01*
X132005492Y-117202140D01*
X132382821Y-117358821D01*
X132791387Y-117359178D01*
X133168989Y-117203156D01*
X133458140Y-116914508D01*
X133558741Y-116672235D01*
X133998293Y-116232683D01*
X155673198Y-116232683D01*
X155937995Y-116873540D01*
X156427881Y-117364282D01*
X157068275Y-117630196D01*
X157761683Y-117630802D01*
X158402540Y-117366005D01*
X158893282Y-116876119D01*
X159159196Y-116235725D01*
X159159802Y-115542317D01*
X159014072Y-115189622D01*
X161521666Y-115189622D01*
X161814416Y-115898132D01*
X162356017Y-116440678D01*
X163064014Y-116734665D01*
X163830622Y-116735334D01*
X164539132Y-116442584D01*
X165081678Y-115900983D01*
X165375665Y-115192986D01*
X165376334Y-114426378D01*
X165083584Y-113717868D01*
X164541983Y-113175322D01*
X163833986Y-112881335D01*
X163067378Y-112880666D01*
X162358868Y-113173416D01*
X161816322Y-113715017D01*
X161522335Y-114423014D01*
X161521666Y-115189622D01*
X159014072Y-115189622D01*
X158895005Y-114901460D01*
X158405119Y-114410718D01*
X157764725Y-114144804D01*
X157071317Y-114144198D01*
X156430460Y-114408995D01*
X155939718Y-114898881D01*
X155673804Y-115539275D01*
X155673198Y-116232683D01*
X133998293Y-116232683D01*
X135511976Y-114719000D01*
X148844000Y-114719000D01*
X149198748Y-114648436D01*
X149499488Y-114447488D01*
X150515488Y-113431488D01*
X150569570Y-113350549D01*
X150716436Y-113130748D01*
X150787000Y-112776000D01*
X150787000Y-111971607D01*
X156431998Y-111971607D01*
X156532620Y-112240122D01*
X157148142Y-112469316D01*
X157804519Y-112445514D01*
X158300380Y-112240122D01*
X158401002Y-111971607D01*
X157416500Y-110987105D01*
X156431998Y-111971607D01*
X150787000Y-111971607D01*
X150787000Y-110539142D01*
X155754684Y-110539142D01*
X155778486Y-111195519D01*
X155983878Y-111691380D01*
X156252393Y-111792002D01*
X157236895Y-110807500D01*
X157596105Y-110807500D01*
X158580607Y-111792002D01*
X158849122Y-111691380D01*
X159078316Y-111075858D01*
X159054514Y-110419481D01*
X158849122Y-109923620D01*
X158580607Y-109822998D01*
X157596105Y-110807500D01*
X157236895Y-110807500D01*
X156252393Y-109822998D01*
X155983878Y-109923620D01*
X155754684Y-110539142D01*
X150787000Y-110539142D01*
X150787000Y-109643393D01*
X156431998Y-109643393D01*
X157416500Y-110627895D01*
X158401002Y-109643393D01*
X158300380Y-109374878D01*
X157684858Y-109145684D01*
X157028481Y-109169486D01*
X156532620Y-109374878D01*
X156431998Y-109643393D01*
X150787000Y-109643393D01*
X150787000Y-106109574D01*
X150802318Y-106072683D01*
X155673198Y-106072683D01*
X155937995Y-106713540D01*
X156427881Y-107204282D01*
X157068275Y-107470196D01*
X157761683Y-107470802D01*
X158402540Y-107206005D01*
X158419953Y-107188622D01*
X161521666Y-107188622D01*
X161814416Y-107897132D01*
X162356017Y-108439678D01*
X163064014Y-108733665D01*
X163830622Y-108734334D01*
X164539132Y-108441584D01*
X165081678Y-107899983D01*
X165375665Y-107191986D01*
X165376334Y-106425378D01*
X165083584Y-105716868D01*
X164541983Y-105174322D01*
X163833986Y-104880335D01*
X163067378Y-104879666D01*
X162358868Y-105172416D01*
X161816322Y-105714017D01*
X161522335Y-106422014D01*
X161521666Y-107188622D01*
X158419953Y-107188622D01*
X158893282Y-106716119D01*
X159159196Y-106075725D01*
X159159802Y-105382317D01*
X158895005Y-104741460D01*
X158405119Y-104250718D01*
X157764725Y-103984804D01*
X157071317Y-103984198D01*
X156430460Y-104248995D01*
X155939718Y-104738881D01*
X155673804Y-105379275D01*
X155673198Y-106072683D01*
X150802318Y-106072683D01*
X150886821Y-105869179D01*
X150887178Y-105460613D01*
X150731156Y-105083011D01*
X150442508Y-104793860D01*
X150065179Y-104637179D01*
X149656613Y-104636822D01*
X149279011Y-104792844D01*
X148989860Y-105081492D01*
X148833179Y-105458821D01*
X148832822Y-105867387D01*
X148933000Y-106109836D01*
X148933000Y-112392024D01*
X148460024Y-112865000D01*
X142944715Y-112865000D01*
X143267027Y-112382626D01*
X143390875Y-111760000D01*
X143267027Y-111137374D01*
X142914338Y-110609537D01*
X142386501Y-110256848D01*
X141763875Y-110133000D01*
X141700125Y-110133000D01*
X141077499Y-110256848D01*
X140549662Y-110609537D01*
X140462000Y-110740733D01*
X140374338Y-110609537D01*
X140119000Y-110438926D01*
X140119000Y-107493074D01*
X140374338Y-107322463D01*
X140462000Y-107191267D01*
X140549662Y-107322463D01*
X141077499Y-107675152D01*
X141700125Y-107799000D01*
X141763875Y-107799000D01*
X142386501Y-107675152D01*
X142914338Y-107322463D01*
X143267027Y-106794626D01*
X143345000Y-106402629D01*
X143345000Y-108774426D01*
X143245179Y-109014821D01*
X143244822Y-109423387D01*
X143400844Y-109800989D01*
X143689492Y-110090140D01*
X144066821Y-110246821D01*
X144475387Y-110247178D01*
X144852989Y-110091156D01*
X145142140Y-109802508D01*
X145298821Y-109425179D01*
X145299178Y-109016613D01*
X145199000Y-108774164D01*
X145199000Y-106109574D01*
X145298821Y-105869179D01*
X145299178Y-105460613D01*
X145143156Y-105083011D01*
X144854508Y-104793860D01*
X144477179Y-104637179D01*
X144068613Y-104636822D01*
X143691011Y-104792844D01*
X143401860Y-105081492D01*
X143245179Y-105458821D01*
X143245129Y-105516601D01*
X142914338Y-105021537D01*
X142386501Y-104668848D01*
X141834258Y-104559000D01*
X148336000Y-104559000D01*
X148690748Y-104488436D01*
X148991488Y-104287488D01*
X152547488Y-100731488D01*
X152646036Y-100584000D01*
X152748436Y-100430748D01*
X152819000Y-100076000D01*
X152819000Y-88800683D01*
X155673198Y-88800683D01*
X155937995Y-89441540D01*
X156427881Y-89932282D01*
X157068275Y-90198196D01*
X157761683Y-90198802D01*
X158402540Y-89934005D01*
X158893282Y-89444119D01*
X159159196Y-88803725D01*
X159159802Y-88110317D01*
X159014072Y-87757622D01*
X161521666Y-87757622D01*
X161814416Y-88466132D01*
X162356017Y-89008678D01*
X163064014Y-89302665D01*
X163830622Y-89303334D01*
X164539132Y-89010584D01*
X165081678Y-88468983D01*
X165375665Y-87760986D01*
X165376334Y-86994378D01*
X165083584Y-86285868D01*
X164541983Y-85743322D01*
X163833986Y-85449335D01*
X163067378Y-85448666D01*
X162358868Y-85741416D01*
X161816322Y-86283017D01*
X161522335Y-86991014D01*
X161521666Y-87757622D01*
X159014072Y-87757622D01*
X158895005Y-87469460D01*
X158405119Y-86978718D01*
X157764725Y-86712804D01*
X157071317Y-86712198D01*
X156430460Y-86976995D01*
X155939718Y-87466881D01*
X155673804Y-88107275D01*
X155673198Y-88800683D01*
X152819000Y-88800683D01*
X152819000Y-84539607D01*
X156431998Y-84539607D01*
X156532620Y-84808122D01*
X157148142Y-85037316D01*
X157804519Y-85013514D01*
X158300380Y-84808122D01*
X158401002Y-84539607D01*
X157416500Y-83555105D01*
X156431998Y-84539607D01*
X152819000Y-84539607D01*
X152819000Y-83107142D01*
X155754684Y-83107142D01*
X155778486Y-83763519D01*
X155983878Y-84259380D01*
X156252393Y-84360002D01*
X157236895Y-83375500D01*
X157596105Y-83375500D01*
X158580607Y-84360002D01*
X158849122Y-84259380D01*
X159078316Y-83643858D01*
X159054514Y-82987481D01*
X158849122Y-82491620D01*
X158580607Y-82390998D01*
X157596105Y-83375500D01*
X157236895Y-83375500D01*
X156252393Y-82390998D01*
X155983878Y-82491620D01*
X155754684Y-83107142D01*
X152819000Y-83107142D01*
X152819000Y-82211393D01*
X156431998Y-82211393D01*
X157416500Y-83195895D01*
X158401002Y-82211393D01*
X158300380Y-81942878D01*
X157684858Y-81713684D01*
X157028481Y-81737486D01*
X156532620Y-81942878D01*
X156431998Y-82211393D01*
X152819000Y-82211393D01*
X152819000Y-78640683D01*
X155673198Y-78640683D01*
X155937995Y-79281540D01*
X156427881Y-79772282D01*
X157068275Y-80038196D01*
X157761683Y-80038802D01*
X158402540Y-79774005D01*
X158419953Y-79756622D01*
X161521666Y-79756622D01*
X161814416Y-80465132D01*
X162356017Y-81007678D01*
X163064014Y-81301665D01*
X163830622Y-81302334D01*
X164539132Y-81009584D01*
X165081678Y-80467983D01*
X165375665Y-79759986D01*
X165376334Y-78993378D01*
X165083584Y-78284868D01*
X164541983Y-77742322D01*
X163833986Y-77448335D01*
X163067378Y-77447666D01*
X162358868Y-77740416D01*
X161816322Y-78282017D01*
X161522335Y-78990014D01*
X161521666Y-79756622D01*
X158419953Y-79756622D01*
X158893282Y-79284119D01*
X159159196Y-78643725D01*
X159159802Y-77950317D01*
X158895005Y-77309460D01*
X158405119Y-76818718D01*
X157764725Y-76552804D01*
X157071317Y-76552198D01*
X156430460Y-76816995D01*
X155939718Y-77306881D01*
X155673804Y-77947275D01*
X155673198Y-78640683D01*
X152819000Y-78640683D01*
X152819000Y-76075976D01*
X159151488Y-69743488D01*
X159336231Y-69467000D01*
X159352436Y-69442748D01*
X159423000Y-69088000D01*
X159423000Y-65407976D01*
X159895976Y-64935000D01*
X161544000Y-64935000D01*
X161898748Y-64864436D01*
X162199488Y-64663488D01*
X163153734Y-63709242D01*
X163270000Y-63709242D01*
X163539410Y-63658549D01*
X163786846Y-63499328D01*
X163952843Y-63256385D01*
X164011242Y-62968000D01*
X164011242Y-59968000D01*
X163960549Y-59698590D01*
X163801328Y-59451154D01*
X163558385Y-59285157D01*
X163270000Y-59226758D01*
X161770000Y-59226758D01*
X161500590Y-59277451D01*
X161253154Y-59436672D01*
X161092420Y-59671912D01*
X161064397Y-59629973D01*
X160585223Y-59309800D01*
X160020000Y-59197370D01*
X159454777Y-59309800D01*
X158975603Y-59629973D01*
X158770000Y-59937680D01*
X158564397Y-59629973D01*
X158085223Y-59309800D01*
X157520000Y-59197370D01*
X156954777Y-59309800D01*
X156475603Y-59629973D01*
X156155430Y-60109147D01*
X156043000Y-60674370D01*
X156043000Y-62261630D01*
X156155430Y-62826853D01*
X156475603Y-63306027D01*
X156593000Y-63384469D01*
X156593000Y-68156024D01*
X150220512Y-74528512D01*
X150019564Y-74829252D01*
X149949000Y-75184000D01*
X149949000Y-88889077D01*
X149656613Y-88888822D01*
X149414164Y-88989000D01*
X127953574Y-88989000D01*
X127713179Y-88889179D01*
X127304613Y-88888822D01*
X126927011Y-89044844D01*
X126637860Y-89333492D01*
X126481179Y-89710821D01*
X126480822Y-90119387D01*
X126636844Y-90496989D01*
X126925492Y-90786140D01*
X127302821Y-90942821D01*
X127711387Y-90943178D01*
X127953836Y-90843000D01*
X149414426Y-90843000D01*
X149654821Y-90942821D01*
X149949000Y-90943078D01*
X149949000Y-99184024D01*
X147444024Y-101689000D01*
X136857976Y-101689000D01*
X138559976Y-99987000D01*
X140778426Y-99987000D01*
X141018821Y-100086821D01*
X141427387Y-100087178D01*
X141804989Y-99931156D01*
X142094140Y-99642508D01*
X142250821Y-99265179D01*
X142251178Y-98856613D01*
X142095156Y-98479011D01*
X141863935Y-98247387D01*
X144768822Y-98247387D01*
X144869000Y-98489836D01*
X144869000Y-100138426D01*
X144769179Y-100378821D01*
X144768822Y-100787387D01*
X144924844Y-101164989D01*
X145213492Y-101454140D01*
X145590821Y-101610821D01*
X145999387Y-101611178D01*
X146376989Y-101455156D01*
X146666140Y-101166508D01*
X146822821Y-100789179D01*
X146823178Y-100380613D01*
X146723000Y-100138164D01*
X146723000Y-98489574D01*
X146822821Y-98249179D01*
X146823178Y-97840613D01*
X146667156Y-97463011D01*
X146378508Y-97173860D01*
X146001179Y-97017179D01*
X145592613Y-97016822D01*
X145215011Y-97172844D01*
X144925860Y-97461492D01*
X144769179Y-97838821D01*
X144768822Y-98247387D01*
X141863935Y-98247387D01*
X141806508Y-98189860D01*
X141429179Y-98033179D01*
X141020613Y-98032822D01*
X140778164Y-98133000D01*
X138176000Y-98133000D01*
X137821252Y-98203564D01*
X137520512Y-98404512D01*
X135295582Y-100629442D01*
X135055011Y-100728844D01*
X134765860Y-101017492D01*
X134609179Y-101394821D01*
X134608922Y-101689000D01*
X129540000Y-101689000D01*
X129185252Y-101759564D01*
X128893140Y-101954747D01*
X128884512Y-101960512D01*
X127868512Y-102976512D01*
X127667564Y-103277252D01*
X127597000Y-103632000D01*
X127597000Y-104850926D01*
X127440280Y-104955643D01*
X127422327Y-104912301D01*
X127243698Y-104733673D01*
X127010309Y-104637000D01*
X126269750Y-104637000D01*
X126111000Y-104795750D01*
X126111000Y-106045000D01*
X126131000Y-106045000D01*
X126131000Y-106299000D01*
X126111000Y-106299000D01*
X126111000Y-107548250D01*
X126269750Y-107707000D01*
X127010309Y-107707000D01*
X127243698Y-107610327D01*
X127422327Y-107431699D01*
X127440280Y-107388357D01*
X127597000Y-107493074D01*
X127597000Y-110438926D01*
X127513051Y-110495019D01*
X127415328Y-110343154D01*
X127172385Y-110177157D01*
X126884000Y-110118758D01*
X125084000Y-110118758D01*
X124814590Y-110169451D01*
X124567154Y-110328672D01*
X124401157Y-110571615D01*
X124342758Y-110860000D01*
X122722000Y-110860000D01*
X122722000Y-106457750D01*
X124449000Y-106457750D01*
X124449000Y-107198310D01*
X124545673Y-107431699D01*
X124724302Y-107610327D01*
X124957691Y-107707000D01*
X125698250Y-107707000D01*
X125857000Y-107548250D01*
X125857000Y-106299000D01*
X124607750Y-106299000D01*
X124449000Y-106457750D01*
X122722000Y-106457750D01*
X122722000Y-105145690D01*
X124449000Y-105145690D01*
X124449000Y-105886250D01*
X124607750Y-106045000D01*
X125857000Y-106045000D01*
X125857000Y-104795750D01*
X125698250Y-104637000D01*
X124957691Y-104637000D01*
X124724302Y-104733673D01*
X124545673Y-104912301D01*
X124449000Y-105145690D01*
X122722000Y-105145690D01*
X122722000Y-87071387D01*
X122924822Y-87071387D01*
X123025000Y-87313836D01*
X123025000Y-94550426D01*
X122925179Y-94790821D01*
X122924822Y-95199387D01*
X123080844Y-95576989D01*
X123369492Y-95866140D01*
X123746821Y-96022821D01*
X124155387Y-96023178D01*
X124532989Y-95867156D01*
X124822140Y-95578508D01*
X124978821Y-95201179D01*
X124979178Y-94792613D01*
X124879000Y-94550164D01*
X124879000Y-92151387D01*
X134100822Y-92151387D01*
X134256844Y-92528989D01*
X134545492Y-92818140D01*
X134922821Y-92974821D01*
X135331387Y-92975178D01*
X135573836Y-92875000D01*
X143318426Y-92875000D01*
X143558821Y-92974821D01*
X143967387Y-92975178D01*
X144344989Y-92819156D01*
X144634140Y-92530508D01*
X144790821Y-92153179D01*
X144791178Y-91744613D01*
X144635156Y-91367011D01*
X144346508Y-91077860D01*
X143969179Y-90921179D01*
X143560613Y-90920822D01*
X143318164Y-91021000D01*
X135573574Y-91021000D01*
X135333179Y-90921179D01*
X134924613Y-90920822D01*
X134547011Y-91076844D01*
X134257860Y-91365492D01*
X134101179Y-91742821D01*
X134100822Y-92151387D01*
X124879000Y-92151387D01*
X124879000Y-87313574D01*
X124978821Y-87073179D01*
X124979178Y-86664613D01*
X124823156Y-86287011D01*
X124534508Y-85997860D01*
X124157179Y-85841179D01*
X123748613Y-85840822D01*
X123371011Y-85996844D01*
X123081860Y-86285492D01*
X122925179Y-86662821D01*
X122924822Y-87071387D01*
X122722000Y-87071387D01*
X122722000Y-79959387D01*
X122924822Y-79959387D01*
X123080844Y-80336989D01*
X123369492Y-80626140D01*
X123611765Y-80726741D01*
X125565000Y-82679976D01*
X125565000Y-82866426D01*
X125465179Y-83106821D01*
X125464822Y-83515387D01*
X125620844Y-83892989D01*
X125909492Y-84182140D01*
X126286821Y-84338821D01*
X126695387Y-84339178D01*
X127072989Y-84183156D01*
X127362140Y-83894508D01*
X127518821Y-83517179D01*
X127519178Y-83108613D01*
X127419000Y-82866164D01*
X127419000Y-82296000D01*
X127348436Y-81941252D01*
X127147488Y-81640512D01*
X126345976Y-80839000D01*
X127285630Y-80839000D01*
X127850853Y-80726570D01*
X128330027Y-80406397D01*
X128650200Y-79927223D01*
X128762630Y-79362000D01*
X128650200Y-78796777D01*
X128330027Y-78317603D01*
X128022320Y-78112000D01*
X128330027Y-77906397D01*
X128567315Y-77551270D01*
X128668844Y-77796989D01*
X128957492Y-78086140D01*
X129121000Y-78154035D01*
X129121000Y-86422426D01*
X129021179Y-86662821D01*
X129020822Y-87071387D01*
X129176844Y-87448989D01*
X129465492Y-87738140D01*
X129842821Y-87894821D01*
X130251387Y-87895178D01*
X130628989Y-87739156D01*
X130918140Y-87450508D01*
X131074821Y-87073179D01*
X131075178Y-86664613D01*
X130975000Y-86422164D01*
X130975000Y-77724000D01*
X130934105Y-77518407D01*
X131568735Y-77518407D01*
X131800717Y-78079846D01*
X132229894Y-78509773D01*
X132790928Y-78742735D01*
X133398407Y-78743265D01*
X133959846Y-78511283D01*
X134389773Y-78082106D01*
X134622735Y-77521072D01*
X134623265Y-76913593D01*
X134391283Y-76352154D01*
X133962106Y-75922227D01*
X133401072Y-75689265D01*
X132793593Y-75688735D01*
X132232154Y-75920717D01*
X131802227Y-76349894D01*
X131569265Y-76910928D01*
X131568735Y-77518407D01*
X130934105Y-77518407D01*
X130904436Y-77369252D01*
X130703488Y-77068512D01*
X130510558Y-76875582D01*
X130411156Y-76635011D01*
X130122508Y-76345860D01*
X129745179Y-76189179D01*
X129336613Y-76188822D01*
X128959011Y-76344844D01*
X128709338Y-76594083D01*
X128650200Y-76296777D01*
X128330027Y-75817603D01*
X128022320Y-75612000D01*
X128330027Y-75406397D01*
X128650200Y-74927223D01*
X128762630Y-74362000D01*
X128650200Y-73796777D01*
X128330027Y-73317603D01*
X127936600Y-73054724D01*
X128192738Y-72847387D01*
X132068822Y-72847387D01*
X132224844Y-73224989D01*
X132513492Y-73514140D01*
X132890821Y-73670821D01*
X133299387Y-73671178D01*
X133541836Y-73571000D01*
X145858426Y-73571000D01*
X146098821Y-73670821D01*
X146507387Y-73671178D01*
X146884989Y-73515156D01*
X147174140Y-73226508D01*
X147330821Y-72849179D01*
X147331178Y-72440613D01*
X147175156Y-72063011D01*
X146886508Y-71773860D01*
X146509179Y-71617179D01*
X146100613Y-71616822D01*
X145858164Y-71717000D01*
X133541574Y-71717000D01*
X133301179Y-71617179D01*
X132892613Y-71616822D01*
X132515011Y-71772844D01*
X132225860Y-72061492D01*
X132069179Y-72438821D01*
X132068822Y-72847387D01*
X128192738Y-72847387D01*
X128311145Y-72751540D01*
X128570173Y-72274684D01*
X128584318Y-72203185D01*
X128461656Y-71989000D01*
X126619000Y-71989000D01*
X126619000Y-72009000D01*
X126365000Y-72009000D01*
X126365000Y-71989000D01*
X124522344Y-71989000D01*
X124399682Y-72203185D01*
X124413827Y-72274684D01*
X124672855Y-72751540D01*
X125047400Y-73054724D01*
X124653973Y-73317603D01*
X124333800Y-73796777D01*
X124221370Y-74362000D01*
X124333800Y-74927223D01*
X124653973Y-75406397D01*
X124961680Y-75612000D01*
X124653973Y-75817603D01*
X124333800Y-76296777D01*
X124221370Y-76862000D01*
X124333800Y-77427223D01*
X124653973Y-77906397D01*
X124961680Y-78112000D01*
X124653973Y-78317603D01*
X124333800Y-78796777D01*
X124332745Y-78802081D01*
X124157179Y-78729179D01*
X123748613Y-78728822D01*
X123371011Y-78884844D01*
X123081860Y-79173492D01*
X122925179Y-79550821D01*
X122924822Y-79959387D01*
X122722000Y-79959387D01*
X122722000Y-64362000D01*
X124221370Y-64362000D01*
X124333800Y-64927223D01*
X124653973Y-65406397D01*
X124961680Y-65612000D01*
X124653973Y-65817603D01*
X124333800Y-66296777D01*
X124221370Y-66862000D01*
X124333800Y-67427223D01*
X124653973Y-67906397D01*
X124961680Y-68112000D01*
X124653973Y-68317603D01*
X124333800Y-68796777D01*
X124221370Y-69362000D01*
X124333800Y-69927223D01*
X124653973Y-70406397D01*
X125047400Y-70669276D01*
X124672855Y-70972460D01*
X124413827Y-71449316D01*
X124399682Y-71520815D01*
X124522344Y-71735000D01*
X126365000Y-71735000D01*
X126365000Y-71715000D01*
X126619000Y-71715000D01*
X126619000Y-71735000D01*
X128461656Y-71735000D01*
X128584318Y-71520815D01*
X128570173Y-71449316D01*
X128311145Y-70972460D01*
X127936600Y-70669276D01*
X128330027Y-70406397D01*
X128650200Y-69927223D01*
X128762630Y-69362000D01*
X128650200Y-68796777D01*
X128330027Y-68317603D01*
X128022320Y-68112000D01*
X128330027Y-67906397D01*
X128650200Y-67427223D01*
X128729991Y-67026084D01*
X131569000Y-67026084D01*
X131569000Y-67085916D01*
X131685236Y-67670274D01*
X132016248Y-68165668D01*
X132511642Y-68496680D01*
X133096000Y-68612916D01*
X133680358Y-68496680D01*
X134175752Y-68165668D01*
X134506764Y-67670274D01*
X134623000Y-67085916D01*
X134623000Y-67026084D01*
X134506764Y-66441726D01*
X134175752Y-65946332D01*
X133680358Y-65615320D01*
X133096000Y-65499084D01*
X132511642Y-65615320D01*
X132016248Y-65946332D01*
X131685236Y-66441726D01*
X131569000Y-67026084D01*
X128729991Y-67026084D01*
X128762630Y-66862000D01*
X128650200Y-66296777D01*
X128330027Y-65817603D01*
X128022320Y-65612000D01*
X128330027Y-65406397D01*
X128650200Y-64927223D01*
X128762630Y-64362000D01*
X128650200Y-63796777D01*
X128330027Y-63317603D01*
X128284887Y-63287442D01*
X128508846Y-63143328D01*
X128674843Y-62900385D01*
X128733242Y-62612000D01*
X128733242Y-61976000D01*
X140944808Y-61976000D01*
X141116155Y-62837420D01*
X141604111Y-63567697D01*
X142334388Y-64055653D01*
X143195808Y-64227000D01*
X146364192Y-64227000D01*
X147225612Y-64055653D01*
X147955889Y-63567697D01*
X148443845Y-62837420D01*
X148615192Y-61976000D01*
X148443845Y-61114580D01*
X147955889Y-60384303D01*
X147225612Y-59896347D01*
X146364192Y-59725000D01*
X143195808Y-59725000D01*
X142334388Y-59896347D01*
X141604111Y-60384303D01*
X141116155Y-61114580D01*
X140944808Y-61976000D01*
X128733242Y-61976000D01*
X128733242Y-61112000D01*
X128682549Y-60842590D01*
X128523328Y-60595154D01*
X128280385Y-60429157D01*
X127992000Y-60370758D01*
X124992000Y-60370758D01*
X124722590Y-60421451D01*
X124475154Y-60580672D01*
X124309157Y-60823615D01*
X124250758Y-61112000D01*
X124250758Y-62612000D01*
X124301451Y-62881410D01*
X124460672Y-63128846D01*
X124695912Y-63289580D01*
X124653973Y-63317603D01*
X124333800Y-63796777D01*
X124221370Y-64362000D01*
X122722000Y-64362000D01*
X122722000Y-57698000D01*
X166838000Y-57698000D01*
X166838000Y-131278000D01*
X166838000Y-131278000D01*
G37*
X166838000Y-131278000D02*
X122722000Y-131278000D01*
X122722000Y-127508000D01*
X140944808Y-127508000D01*
X141116155Y-128369420D01*
X141604111Y-129099697D01*
X142334388Y-129587653D01*
X143195808Y-129759000D01*
X146364192Y-129759000D01*
X147225612Y-129587653D01*
X147955889Y-129099697D01*
X148443845Y-128369420D01*
X148615192Y-127508000D01*
X148443845Y-126646580D01*
X147955889Y-125916303D01*
X147225612Y-125428347D01*
X146364192Y-125257000D01*
X143195808Y-125257000D01*
X142334388Y-125428347D01*
X141604111Y-125916303D01*
X141116155Y-126646580D01*
X140944808Y-127508000D01*
X122722000Y-127508000D01*
X122722000Y-110860000D01*
X124342758Y-110860000D01*
X124342758Y-112660000D01*
X124393451Y-112929410D01*
X124552672Y-113176846D01*
X124795615Y-113342843D01*
X125084000Y-113401242D01*
X126884000Y-113401242D01*
X127153410Y-113350549D01*
X127400846Y-113191328D01*
X127514050Y-113025649D01*
X127869499Y-113263152D01*
X128492125Y-113387000D01*
X128555875Y-113387000D01*
X129178501Y-113263152D01*
X129706338Y-112910463D01*
X129794000Y-112779267D01*
X129881662Y-112910463D01*
X130137000Y-113081074D01*
X130137000Y-113408024D01*
X128183582Y-115361442D01*
X127943011Y-115460844D01*
X127653860Y-115749492D01*
X127497179Y-116126821D01*
X127496822Y-116535387D01*
X127652844Y-116912989D01*
X127941492Y-117202140D01*
X128318821Y-117358821D01*
X128727387Y-117359178D01*
X129104989Y-117203156D01*
X129394140Y-116914508D01*
X129494741Y-116672235D01*
X131719488Y-114447488D01*
X131745208Y-114408995D01*
X131920436Y-114146748D01*
X131991000Y-113792000D01*
X131991000Y-113081074D01*
X132246338Y-112910463D01*
X132599027Y-112382626D01*
X132722875Y-111760000D01*
X132599027Y-111137374D01*
X132246338Y-110609537D01*
X131718501Y-110256848D01*
X131398185Y-110193133D01*
X131644989Y-110091156D01*
X131934140Y-109802508D01*
X132090821Y-109425179D01*
X132091178Y-109016613D01*
X131991000Y-108774164D01*
X131991000Y-107493074D01*
X132246338Y-107322463D01*
X132599027Y-106794626D01*
X132666035Y-106457750D01*
X135117000Y-106457750D01*
X135117000Y-107198310D01*
X135213673Y-107431699D01*
X135392302Y-107610327D01*
X135625691Y-107707000D01*
X136366250Y-107707000D01*
X136525000Y-107548250D01*
X136525000Y-106299000D01*
X135275750Y-106299000D01*
X135117000Y-106457750D01*
X132666035Y-106457750D01*
X132722875Y-106172000D01*
X132599027Y-105549374D01*
X132329295Y-105145690D01*
X135117000Y-105145690D01*
X135117000Y-105886250D01*
X135275750Y-106045000D01*
X136525000Y-106045000D01*
X136525000Y-104795750D01*
X136366250Y-104637000D01*
X135625691Y-104637000D01*
X135392302Y-104733673D01*
X135213673Y-104912301D01*
X135117000Y-105145690D01*
X132329295Y-105145690D01*
X132246338Y-105021537D01*
X131718501Y-104668848D01*
X131095875Y-104545000D01*
X131032125Y-104545000D01*
X130409499Y-104668848D01*
X129881662Y-105021537D01*
X129794000Y-105152733D01*
X129706338Y-105021537D01*
X129451000Y-104850926D01*
X129451000Y-104015976D01*
X129923976Y-103543000D01*
X139494024Y-103543000D01*
X138536512Y-104500512D01*
X138335564Y-104801252D01*
X138334985Y-104804163D01*
X138108280Y-104955643D01*
X138090327Y-104912301D01*
X137911698Y-104733673D01*
X137678309Y-104637000D01*
X136937750Y-104637000D01*
X136779000Y-104795750D01*
X136779000Y-106045000D01*
X136799000Y-106045000D01*
X136799000Y-106299000D01*
X136779000Y-106299000D01*
X136779000Y-107548250D01*
X136937750Y-107707000D01*
X137678309Y-107707000D01*
X137911698Y-107610327D01*
X138090327Y-107431699D01*
X138108280Y-107388357D01*
X138265000Y-107493074D01*
X138265000Y-110438926D01*
X138181051Y-110495019D01*
X138083328Y-110343154D01*
X137840385Y-110177157D01*
X137552000Y-110118758D01*
X135752000Y-110118758D01*
X135482590Y-110169451D01*
X135235154Y-110328672D01*
X135069157Y-110571615D01*
X135010758Y-110860000D01*
X135010758Y-112660000D01*
X135052170Y-112880084D01*
X134773252Y-112935564D01*
X134481140Y-113130747D01*
X134472512Y-113136512D01*
X132247582Y-115361442D01*
X132007011Y-115460844D01*
X131717860Y-115749492D01*
X131561179Y-116126821D01*
X131560822Y-116535387D01*
X131716844Y-116912989D01*
X132005492Y-117202140D01*
X132382821Y-117358821D01*
X132791387Y-117359178D01*
X133168989Y-117203156D01*
X133458140Y-116914508D01*
X133558741Y-116672235D01*
X133998293Y-116232683D01*
X155673198Y-116232683D01*
X155937995Y-116873540D01*
X156427881Y-117364282D01*
X157068275Y-117630196D01*
X157761683Y-117630802D01*
X158402540Y-117366005D01*
X158893282Y-116876119D01*
X159159196Y-116235725D01*
X159159802Y-115542317D01*
X159014072Y-115189622D01*
X161521666Y-115189622D01*
X161814416Y-115898132D01*
X162356017Y-116440678D01*
X163064014Y-116734665D01*
X163830622Y-116735334D01*
X164539132Y-116442584D01*
X165081678Y-115900983D01*
X165375665Y-115192986D01*
X165376334Y-114426378D01*
X165083584Y-113717868D01*
X164541983Y-113175322D01*
X163833986Y-112881335D01*
X163067378Y-112880666D01*
X162358868Y-113173416D01*
X161816322Y-113715017D01*
X161522335Y-114423014D01*
X161521666Y-115189622D01*
X159014072Y-115189622D01*
X158895005Y-114901460D01*
X158405119Y-114410718D01*
X157764725Y-114144804D01*
X157071317Y-114144198D01*
X156430460Y-114408995D01*
X155939718Y-114898881D01*
X155673804Y-115539275D01*
X155673198Y-116232683D01*
X133998293Y-116232683D01*
X135511976Y-114719000D01*
X148844000Y-114719000D01*
X149198748Y-114648436D01*
X149499488Y-114447488D01*
X150515488Y-113431488D01*
X150569570Y-113350549D01*
X150716436Y-113130748D01*
X150787000Y-112776000D01*
X150787000Y-111971607D01*
X156431998Y-111971607D01*
X156532620Y-112240122D01*
X157148142Y-112469316D01*
X157804519Y-112445514D01*
X158300380Y-112240122D01*
X158401002Y-111971607D01*
X157416500Y-110987105D01*
X156431998Y-111971607D01*
X150787000Y-111971607D01*
X150787000Y-110539142D01*
X155754684Y-110539142D01*
X155778486Y-111195519D01*
X155983878Y-111691380D01*
X156252393Y-111792002D01*
X157236895Y-110807500D01*
X157596105Y-110807500D01*
X158580607Y-111792002D01*
X158849122Y-111691380D01*
X159078316Y-111075858D01*
X159054514Y-110419481D01*
X158849122Y-109923620D01*
X158580607Y-109822998D01*
X157596105Y-110807500D01*
X157236895Y-110807500D01*
X156252393Y-109822998D01*
X155983878Y-109923620D01*
X155754684Y-110539142D01*
X150787000Y-110539142D01*
X150787000Y-109643393D01*
X156431998Y-109643393D01*
X157416500Y-110627895D01*
X158401002Y-109643393D01*
X158300380Y-109374878D01*
X157684858Y-109145684D01*
X157028481Y-109169486D01*
X156532620Y-109374878D01*
X156431998Y-109643393D01*
X150787000Y-109643393D01*
X150787000Y-106109574D01*
X150802318Y-106072683D01*
X155673198Y-106072683D01*
X155937995Y-106713540D01*
X156427881Y-107204282D01*
X157068275Y-107470196D01*
X157761683Y-107470802D01*
X158402540Y-107206005D01*
X158419953Y-107188622D01*
X161521666Y-107188622D01*
X161814416Y-107897132D01*
X162356017Y-108439678D01*
X163064014Y-108733665D01*
X163830622Y-108734334D01*
X164539132Y-108441584D01*
X165081678Y-107899983D01*
X165375665Y-107191986D01*
X165376334Y-106425378D01*
X165083584Y-105716868D01*
X164541983Y-105174322D01*
X163833986Y-104880335D01*
X163067378Y-104879666D01*
X162358868Y-105172416D01*
X161816322Y-105714017D01*
X161522335Y-106422014D01*
X161521666Y-107188622D01*
X158419953Y-107188622D01*
X158893282Y-106716119D01*
X159159196Y-106075725D01*
X159159802Y-105382317D01*
X158895005Y-104741460D01*
X158405119Y-104250718D01*
X157764725Y-103984804D01*
X157071317Y-103984198D01*
X156430460Y-104248995D01*
X155939718Y-104738881D01*
X155673804Y-105379275D01*
X155673198Y-106072683D01*
X150802318Y-106072683D01*
X150886821Y-105869179D01*
X150887178Y-105460613D01*
X150731156Y-105083011D01*
X150442508Y-104793860D01*
X150065179Y-104637179D01*
X149656613Y-104636822D01*
X149279011Y-104792844D01*
X148989860Y-105081492D01*
X148833179Y-105458821D01*
X148832822Y-105867387D01*
X148933000Y-106109836D01*
X148933000Y-112392024D01*
X148460024Y-112865000D01*
X142944715Y-112865000D01*
X143267027Y-112382626D01*
X143390875Y-111760000D01*
X143267027Y-111137374D01*
X142914338Y-110609537D01*
X142386501Y-110256848D01*
X141763875Y-110133000D01*
X141700125Y-110133000D01*
X141077499Y-110256848D01*
X140549662Y-110609537D01*
X140462000Y-110740733D01*
X140374338Y-110609537D01*
X140119000Y-110438926D01*
X140119000Y-107493074D01*
X140374338Y-107322463D01*
X140462000Y-107191267D01*
X140549662Y-107322463D01*
X141077499Y-107675152D01*
X141700125Y-107799000D01*
X141763875Y-107799000D01*
X142386501Y-107675152D01*
X142914338Y-107322463D01*
X143267027Y-106794626D01*
X143345000Y-106402629D01*
X143345000Y-108774426D01*
X143245179Y-109014821D01*
X143244822Y-109423387D01*
X143400844Y-109800989D01*
X143689492Y-110090140D01*
X144066821Y-110246821D01*
X144475387Y-110247178D01*
X144852989Y-110091156D01*
X145142140Y-109802508D01*
X145298821Y-109425179D01*
X145299178Y-109016613D01*
X145199000Y-108774164D01*
X145199000Y-106109574D01*
X145298821Y-105869179D01*
X145299178Y-105460613D01*
X145143156Y-105083011D01*
X144854508Y-104793860D01*
X144477179Y-104637179D01*
X144068613Y-104636822D01*
X143691011Y-104792844D01*
X143401860Y-105081492D01*
X143245179Y-105458821D01*
X143245129Y-105516601D01*
X142914338Y-105021537D01*
X142386501Y-104668848D01*
X141834258Y-104559000D01*
X148336000Y-104559000D01*
X148690748Y-104488436D01*
X148991488Y-104287488D01*
X152547488Y-100731488D01*
X152646036Y-100584000D01*
X152748436Y-100430748D01*
X152819000Y-100076000D01*
X152819000Y-88800683D01*
X155673198Y-88800683D01*
X155937995Y-89441540D01*
X156427881Y-89932282D01*
X157068275Y-90198196D01*
X157761683Y-90198802D01*
X158402540Y-89934005D01*
X158893282Y-89444119D01*
X159159196Y-88803725D01*
X159159802Y-88110317D01*
X159014072Y-87757622D01*
X161521666Y-87757622D01*
X161814416Y-88466132D01*
X162356017Y-89008678D01*
X163064014Y-89302665D01*
X163830622Y-89303334D01*
X164539132Y-89010584D01*
X165081678Y-88468983D01*
X165375665Y-87760986D01*
X165376334Y-86994378D01*
X165083584Y-86285868D01*
X164541983Y-85743322D01*
X163833986Y-85449335D01*
X163067378Y-85448666D01*
X162358868Y-85741416D01*
X161816322Y-86283017D01*
X161522335Y-86991014D01*
X161521666Y-87757622D01*
X159014072Y-87757622D01*
X158895005Y-87469460D01*
X158405119Y-86978718D01*
X157764725Y-86712804D01*
X157071317Y-86712198D01*
X156430460Y-86976995D01*
X155939718Y-87466881D01*
X155673804Y-88107275D01*
X155673198Y-88800683D01*
X152819000Y-88800683D01*
X152819000Y-84539607D01*
X156431998Y-84539607D01*
X156532620Y-84808122D01*
X157148142Y-85037316D01*
X157804519Y-85013514D01*
X158300380Y-84808122D01*
X158401002Y-84539607D01*
X157416500Y-83555105D01*
X156431998Y-84539607D01*
X152819000Y-84539607D01*
X152819000Y-83107142D01*
X155754684Y-83107142D01*
X155778486Y-83763519D01*
X155983878Y-84259380D01*
X156252393Y-84360002D01*
X157236895Y-83375500D01*
X157596105Y-83375500D01*
X158580607Y-84360002D01*
X158849122Y-84259380D01*
X159078316Y-83643858D01*
X159054514Y-82987481D01*
X158849122Y-82491620D01*
X158580607Y-82390998D01*
X157596105Y-83375500D01*
X157236895Y-83375500D01*
X156252393Y-82390998D01*
X155983878Y-82491620D01*
X155754684Y-83107142D01*
X152819000Y-83107142D01*
X152819000Y-82211393D01*
X156431998Y-82211393D01*
X157416500Y-83195895D01*
X158401002Y-82211393D01*
X158300380Y-81942878D01*
X157684858Y-81713684D01*
X157028481Y-81737486D01*
X156532620Y-81942878D01*
X156431998Y-82211393D01*
X152819000Y-82211393D01*
X152819000Y-78640683D01*
X155673198Y-78640683D01*
X155937995Y-79281540D01*
X156427881Y-79772282D01*
X157068275Y-80038196D01*
X157761683Y-80038802D01*
X158402540Y-79774005D01*
X158419953Y-79756622D01*
X161521666Y-79756622D01*
X161814416Y-80465132D01*
X162356017Y-81007678D01*
X163064014Y-81301665D01*
X163830622Y-81302334D01*
X164539132Y-81009584D01*
X165081678Y-80467983D01*
X165375665Y-79759986D01*
X165376334Y-78993378D01*
X165083584Y-78284868D01*
X164541983Y-77742322D01*
X163833986Y-77448335D01*
X163067378Y-77447666D01*
X162358868Y-77740416D01*
X161816322Y-78282017D01*
X161522335Y-78990014D01*
X161521666Y-79756622D01*
X158419953Y-79756622D01*
X158893282Y-79284119D01*
X159159196Y-78643725D01*
X159159802Y-77950317D01*
X158895005Y-77309460D01*
X158405119Y-76818718D01*
X157764725Y-76552804D01*
X157071317Y-76552198D01*
X156430460Y-76816995D01*
X155939718Y-77306881D01*
X155673804Y-77947275D01*
X155673198Y-78640683D01*
X152819000Y-78640683D01*
X152819000Y-76075976D01*
X159151488Y-69743488D01*
X159336231Y-69467000D01*
X159352436Y-69442748D01*
X159423000Y-69088000D01*
X159423000Y-65407976D01*
X159895976Y-64935000D01*
X161544000Y-64935000D01*
X161898748Y-64864436D01*
X162199488Y-64663488D01*
X163153734Y-63709242D01*
X163270000Y-63709242D01*
X163539410Y-63658549D01*
X163786846Y-63499328D01*
X163952843Y-63256385D01*
X164011242Y-62968000D01*
X164011242Y-59968000D01*
X163960549Y-59698590D01*
X163801328Y-59451154D01*
X163558385Y-59285157D01*
X163270000Y-59226758D01*
X161770000Y-59226758D01*
X161500590Y-59277451D01*
X161253154Y-59436672D01*
X161092420Y-59671912D01*
X161064397Y-59629973D01*
X160585223Y-59309800D01*
X160020000Y-59197370D01*
X159454777Y-59309800D01*
X158975603Y-59629973D01*
X158770000Y-59937680D01*
X158564397Y-59629973D01*
X158085223Y-59309800D01*
X157520000Y-59197370D01*
X156954777Y-59309800D01*
X156475603Y-59629973D01*
X156155430Y-60109147D01*
X156043000Y-60674370D01*
X156043000Y-62261630D01*
X156155430Y-62826853D01*
X156475603Y-63306027D01*
X156593000Y-63384469D01*
X156593000Y-68156024D01*
X150220512Y-74528512D01*
X150019564Y-74829252D01*
X149949000Y-75184000D01*
X149949000Y-88889077D01*
X149656613Y-88888822D01*
X149414164Y-88989000D01*
X127953574Y-88989000D01*
X127713179Y-88889179D01*
X127304613Y-88888822D01*
X126927011Y-89044844D01*
X126637860Y-89333492D01*
X126481179Y-89710821D01*
X126480822Y-90119387D01*
X126636844Y-90496989D01*
X126925492Y-90786140D01*
X127302821Y-90942821D01*
X127711387Y-90943178D01*
X127953836Y-90843000D01*
X149414426Y-90843000D01*
X149654821Y-90942821D01*
X149949000Y-90943078D01*
X149949000Y-99184024D01*
X147444024Y-101689000D01*
X136857976Y-101689000D01*
X138559976Y-99987000D01*
X140778426Y-99987000D01*
X141018821Y-100086821D01*
X141427387Y-100087178D01*
X141804989Y-99931156D01*
X142094140Y-99642508D01*
X142250821Y-99265179D01*
X142251178Y-98856613D01*
X142095156Y-98479011D01*
X141863935Y-98247387D01*
X144768822Y-98247387D01*
X144869000Y-98489836D01*
X144869000Y-100138426D01*
X144769179Y-100378821D01*
X144768822Y-100787387D01*
X144924844Y-101164989D01*
X145213492Y-101454140D01*
X145590821Y-101610821D01*
X145999387Y-101611178D01*
X146376989Y-101455156D01*
X146666140Y-101166508D01*
X146822821Y-100789179D01*
X146823178Y-100380613D01*
X146723000Y-100138164D01*
X146723000Y-98489574D01*
X146822821Y-98249179D01*
X146823178Y-97840613D01*
X146667156Y-97463011D01*
X146378508Y-97173860D01*
X146001179Y-97017179D01*
X145592613Y-97016822D01*
X145215011Y-97172844D01*
X144925860Y-97461492D01*
X144769179Y-97838821D01*
X144768822Y-98247387D01*
X141863935Y-98247387D01*
X141806508Y-98189860D01*
X141429179Y-98033179D01*
X141020613Y-98032822D01*
X140778164Y-98133000D01*
X138176000Y-98133000D01*
X137821252Y-98203564D01*
X137520512Y-98404512D01*
X135295582Y-100629442D01*
X135055011Y-100728844D01*
X134765860Y-101017492D01*
X134609179Y-101394821D01*
X134608922Y-101689000D01*
X129540000Y-101689000D01*
X129185252Y-101759564D01*
X128893140Y-101954747D01*
X128884512Y-101960512D01*
X127868512Y-102976512D01*
X127667564Y-103277252D01*
X127597000Y-103632000D01*
X127597000Y-104850926D01*
X127440280Y-104955643D01*
X127422327Y-104912301D01*
X127243698Y-104733673D01*
X127010309Y-104637000D01*
X126269750Y-104637000D01*
X126111000Y-104795750D01*
X126111000Y-106045000D01*
X126131000Y-106045000D01*
X126131000Y-106299000D01*
X126111000Y-106299000D01*
X126111000Y-107548250D01*
X126269750Y-107707000D01*
X127010309Y-107707000D01*
X127243698Y-107610327D01*
X127422327Y-107431699D01*
X127440280Y-107388357D01*
X127597000Y-107493074D01*
X127597000Y-110438926D01*
X127513051Y-110495019D01*
X127415328Y-110343154D01*
X127172385Y-110177157D01*
X126884000Y-110118758D01*
X125084000Y-110118758D01*
X124814590Y-110169451D01*
X124567154Y-110328672D01*
X124401157Y-110571615D01*
X124342758Y-110860000D01*
X122722000Y-110860000D01*
X122722000Y-106457750D01*
X124449000Y-106457750D01*
X124449000Y-107198310D01*
X124545673Y-107431699D01*
X124724302Y-107610327D01*
X124957691Y-107707000D01*
X125698250Y-107707000D01*
X125857000Y-107548250D01*
X125857000Y-106299000D01*
X124607750Y-106299000D01*
X124449000Y-106457750D01*
X122722000Y-106457750D01*
X122722000Y-105145690D01*
X124449000Y-105145690D01*
X124449000Y-105886250D01*
X124607750Y-106045000D01*
X125857000Y-106045000D01*
X125857000Y-104795750D01*
X125698250Y-104637000D01*
X124957691Y-104637000D01*
X124724302Y-104733673D01*
X124545673Y-104912301D01*
X124449000Y-105145690D01*
X122722000Y-105145690D01*
X122722000Y-87071387D01*
X122924822Y-87071387D01*
X123025000Y-87313836D01*
X123025000Y-94550426D01*
X122925179Y-94790821D01*
X122924822Y-95199387D01*
X123080844Y-95576989D01*
X123369492Y-95866140D01*
X123746821Y-96022821D01*
X124155387Y-96023178D01*
X124532989Y-95867156D01*
X124822140Y-95578508D01*
X124978821Y-95201179D01*
X124979178Y-94792613D01*
X124879000Y-94550164D01*
X124879000Y-92151387D01*
X134100822Y-92151387D01*
X134256844Y-92528989D01*
X134545492Y-92818140D01*
X134922821Y-92974821D01*
X135331387Y-92975178D01*
X135573836Y-92875000D01*
X143318426Y-92875000D01*
X143558821Y-92974821D01*
X143967387Y-92975178D01*
X144344989Y-92819156D01*
X144634140Y-92530508D01*
X144790821Y-92153179D01*
X144791178Y-91744613D01*
X144635156Y-91367011D01*
X144346508Y-91077860D01*
X143969179Y-90921179D01*
X143560613Y-90920822D01*
X143318164Y-91021000D01*
X135573574Y-91021000D01*
X135333179Y-90921179D01*
X134924613Y-90920822D01*
X134547011Y-91076844D01*
X134257860Y-91365492D01*
X134101179Y-91742821D01*
X134100822Y-92151387D01*
X124879000Y-92151387D01*
X124879000Y-87313574D01*
X124978821Y-87073179D01*
X124979178Y-86664613D01*
X124823156Y-86287011D01*
X124534508Y-85997860D01*
X124157179Y-85841179D01*
X123748613Y-85840822D01*
X123371011Y-85996844D01*
X123081860Y-86285492D01*
X122925179Y-86662821D01*
X122924822Y-87071387D01*
X122722000Y-87071387D01*
X122722000Y-79959387D01*
X122924822Y-79959387D01*
X123080844Y-80336989D01*
X123369492Y-80626140D01*
X123611765Y-80726741D01*
X125565000Y-82679976D01*
X125565000Y-82866426D01*
X125465179Y-83106821D01*
X125464822Y-83515387D01*
X125620844Y-83892989D01*
X125909492Y-84182140D01*
X126286821Y-84338821D01*
X126695387Y-84339178D01*
X127072989Y-84183156D01*
X127362140Y-83894508D01*
X127518821Y-83517179D01*
X127519178Y-83108613D01*
X127419000Y-82866164D01*
X127419000Y-82296000D01*
X127348436Y-81941252D01*
X127147488Y-81640512D01*
X126345976Y-80839000D01*
X127285630Y-80839000D01*
X127850853Y-80726570D01*
X128330027Y-80406397D01*
X128650200Y-79927223D01*
X128762630Y-79362000D01*
X128650200Y-78796777D01*
X128330027Y-78317603D01*
X128022320Y-78112000D01*
X128330027Y-77906397D01*
X128567315Y-77551270D01*
X128668844Y-77796989D01*
X128957492Y-78086140D01*
X129121000Y-78154035D01*
X129121000Y-86422426D01*
X129021179Y-86662821D01*
X129020822Y-87071387D01*
X129176844Y-87448989D01*
X129465492Y-87738140D01*
X129842821Y-87894821D01*
X130251387Y-87895178D01*
X130628989Y-87739156D01*
X130918140Y-87450508D01*
X131074821Y-87073179D01*
X131075178Y-86664613D01*
X130975000Y-86422164D01*
X130975000Y-77724000D01*
X130934105Y-77518407D01*
X131568735Y-77518407D01*
X131800717Y-78079846D01*
X132229894Y-78509773D01*
X132790928Y-78742735D01*
X133398407Y-78743265D01*
X133959846Y-78511283D01*
X134389773Y-78082106D01*
X134622735Y-77521072D01*
X134623265Y-76913593D01*
X134391283Y-76352154D01*
X133962106Y-75922227D01*
X133401072Y-75689265D01*
X132793593Y-75688735D01*
X132232154Y-75920717D01*
X131802227Y-76349894D01*
X131569265Y-76910928D01*
X131568735Y-77518407D01*
X130934105Y-77518407D01*
X130904436Y-77369252D01*
X130703488Y-77068512D01*
X130510558Y-76875582D01*
X130411156Y-76635011D01*
X130122508Y-76345860D01*
X129745179Y-76189179D01*
X129336613Y-76188822D01*
X128959011Y-76344844D01*
X128709338Y-76594083D01*
X128650200Y-76296777D01*
X128330027Y-75817603D01*
X128022320Y-75612000D01*
X128330027Y-75406397D01*
X128650200Y-74927223D01*
X128762630Y-74362000D01*
X128650200Y-73796777D01*
X128330027Y-73317603D01*
X127936600Y-73054724D01*
X128192738Y-72847387D01*
X132068822Y-72847387D01*
X132224844Y-73224989D01*
X132513492Y-73514140D01*
X132890821Y-73670821D01*
X133299387Y-73671178D01*
X133541836Y-73571000D01*
X145858426Y-73571000D01*
X146098821Y-73670821D01*
X146507387Y-73671178D01*
X146884989Y-73515156D01*
X147174140Y-73226508D01*
X147330821Y-72849179D01*
X147331178Y-72440613D01*
X147175156Y-72063011D01*
X146886508Y-71773860D01*
X146509179Y-71617179D01*
X146100613Y-71616822D01*
X145858164Y-71717000D01*
X133541574Y-71717000D01*
X133301179Y-71617179D01*
X132892613Y-71616822D01*
X132515011Y-71772844D01*
X132225860Y-72061492D01*
X132069179Y-72438821D01*
X132068822Y-72847387D01*
X128192738Y-72847387D01*
X128311145Y-72751540D01*
X128570173Y-72274684D01*
X128584318Y-72203185D01*
X128461656Y-71989000D01*
X126619000Y-71989000D01*
X126619000Y-72009000D01*
X126365000Y-72009000D01*
X126365000Y-71989000D01*
X124522344Y-71989000D01*
X124399682Y-72203185D01*
X124413827Y-72274684D01*
X124672855Y-72751540D01*
X125047400Y-73054724D01*
X124653973Y-73317603D01*
X124333800Y-73796777D01*
X124221370Y-74362000D01*
X124333800Y-74927223D01*
X124653973Y-75406397D01*
X124961680Y-75612000D01*
X124653973Y-75817603D01*
X124333800Y-76296777D01*
X124221370Y-76862000D01*
X124333800Y-77427223D01*
X124653973Y-77906397D01*
X124961680Y-78112000D01*
X124653973Y-78317603D01*
X124333800Y-78796777D01*
X124332745Y-78802081D01*
X124157179Y-78729179D01*
X123748613Y-78728822D01*
X123371011Y-78884844D01*
X123081860Y-79173492D01*
X122925179Y-79550821D01*
X122924822Y-79959387D01*
X122722000Y-79959387D01*
X122722000Y-64362000D01*
X124221370Y-64362000D01*
X124333800Y-64927223D01*
X124653973Y-65406397D01*
X124961680Y-65612000D01*
X124653973Y-65817603D01*
X124333800Y-66296777D01*
X124221370Y-66862000D01*
X124333800Y-67427223D01*
X124653973Y-67906397D01*
X124961680Y-68112000D01*
X124653973Y-68317603D01*
X124333800Y-68796777D01*
X124221370Y-69362000D01*
X124333800Y-69927223D01*
X124653973Y-70406397D01*
X125047400Y-70669276D01*
X124672855Y-70972460D01*
X124413827Y-71449316D01*
X124399682Y-71520815D01*
X124522344Y-71735000D01*
X126365000Y-71735000D01*
X126365000Y-71715000D01*
X126619000Y-71715000D01*
X126619000Y-71735000D01*
X128461656Y-71735000D01*
X128584318Y-71520815D01*
X128570173Y-71449316D01*
X128311145Y-70972460D01*
X127936600Y-70669276D01*
X128330027Y-70406397D01*
X128650200Y-69927223D01*
X128762630Y-69362000D01*
X128650200Y-68796777D01*
X128330027Y-68317603D01*
X128022320Y-68112000D01*
X128330027Y-67906397D01*
X128650200Y-67427223D01*
X128729991Y-67026084D01*
X131569000Y-67026084D01*
X131569000Y-67085916D01*
X131685236Y-67670274D01*
X132016248Y-68165668D01*
X132511642Y-68496680D01*
X133096000Y-68612916D01*
X133680358Y-68496680D01*
X134175752Y-68165668D01*
X134506764Y-67670274D01*
X134623000Y-67085916D01*
X134623000Y-67026084D01*
X134506764Y-66441726D01*
X134175752Y-65946332D01*
X133680358Y-65615320D01*
X133096000Y-65499084D01*
X132511642Y-65615320D01*
X132016248Y-65946332D01*
X131685236Y-66441726D01*
X131569000Y-67026084D01*
X128729991Y-67026084D01*
X128762630Y-66862000D01*
X128650200Y-66296777D01*
X128330027Y-65817603D01*
X128022320Y-65612000D01*
X128330027Y-65406397D01*
X128650200Y-64927223D01*
X128762630Y-64362000D01*
X128650200Y-63796777D01*
X128330027Y-63317603D01*
X128284887Y-63287442D01*
X128508846Y-63143328D01*
X128674843Y-62900385D01*
X128733242Y-62612000D01*
X128733242Y-61976000D01*
X140944808Y-61976000D01*
X141116155Y-62837420D01*
X141604111Y-63567697D01*
X142334388Y-64055653D01*
X143195808Y-64227000D01*
X146364192Y-64227000D01*
X147225612Y-64055653D01*
X147955889Y-63567697D01*
X148443845Y-62837420D01*
X148615192Y-61976000D01*
X148443845Y-61114580D01*
X147955889Y-60384303D01*
X147225612Y-59896347D01*
X146364192Y-59725000D01*
X143195808Y-59725000D01*
X142334388Y-59896347D01*
X141604111Y-60384303D01*
X141116155Y-61114580D01*
X140944808Y-61976000D01*
X128733242Y-61976000D01*
X128733242Y-61112000D01*
X128682549Y-60842590D01*
X128523328Y-60595154D01*
X128280385Y-60429157D01*
X127992000Y-60370758D01*
X124992000Y-60370758D01*
X124722590Y-60421451D01*
X124475154Y-60580672D01*
X124309157Y-60823615D01*
X124250758Y-61112000D01*
X124250758Y-62612000D01*
X124301451Y-62881410D01*
X124460672Y-63128846D01*
X124695912Y-63289580D01*
X124653973Y-63317603D01*
X124333800Y-63796777D01*
X124221370Y-64362000D01*
X122722000Y-64362000D01*
X122722000Y-57698000D01*
X166838000Y-57698000D01*
X166838000Y-131278000D01*
M02*
