G04 #@! TF.FileFunction,Legend,Bot*
%FSLAX46Y46*%
G04 Gerber Fmt 4.6, Leading zero omitted, Abs format (unit mm)*
G04 Created by KiCad (PCBNEW 4.0.7) date 09/08/18 11:18:52*
%MOMM*%
%LPD*%
G01*
G04 APERTURE LIST*
%ADD10C,0.100000*%
%ADD11C,0.600000*%
%ADD12C,0.300000*%
G04 APERTURE END LIST*
D10*
D11*
X157815810Y-99045333D02*
X157815810Y-97559619D01*
X155215810Y-98302476D02*
X157815810Y-98302476D01*
X155215810Y-96692952D02*
X157815810Y-96692952D01*
X155215810Y-95578667D02*
X156577714Y-95578667D01*
X156825333Y-95702476D01*
X156949143Y-95950095D01*
X156949143Y-96321524D01*
X156825333Y-96569143D01*
X156701524Y-96692952D01*
X155339619Y-93350095D02*
X155215810Y-93597714D01*
X155215810Y-94092952D01*
X155339619Y-94340571D01*
X155587238Y-94464381D01*
X156577714Y-94464381D01*
X156825333Y-94340571D01*
X156949143Y-94092952D01*
X156949143Y-93597714D01*
X156825333Y-93350095D01*
X156577714Y-93226286D01*
X156330095Y-93226286D01*
X156082476Y-94464381D01*
X150715810Y-107588189D02*
X153315810Y-107588189D01*
X153315810Y-106969142D01*
X153192000Y-106597713D01*
X152944381Y-106350094D01*
X152696762Y-106226285D01*
X152201524Y-106102475D01*
X151830095Y-106102475D01*
X151334857Y-106226285D01*
X151087238Y-106350094D01*
X150839619Y-106597713D01*
X150715810Y-106969142D01*
X150715810Y-107588189D01*
X150715810Y-104616761D02*
X150839619Y-104864380D01*
X150963429Y-104988189D01*
X151211048Y-105111999D01*
X151953905Y-105111999D01*
X152201524Y-104988189D01*
X152325333Y-104864380D01*
X152449143Y-104616761D01*
X152449143Y-104245332D01*
X152325333Y-103997713D01*
X152201524Y-103873904D01*
X151953905Y-103750094D01*
X151211048Y-103750094D01*
X150963429Y-103873904D01*
X150839619Y-103997713D01*
X150715810Y-104245332D01*
X150715810Y-104616761D01*
X150715810Y-102635808D02*
X152449143Y-102635808D01*
X152201524Y-102635808D02*
X152325333Y-102511999D01*
X152449143Y-102264380D01*
X152449143Y-101892951D01*
X152325333Y-101645332D01*
X152077714Y-101521523D01*
X150715810Y-101521523D01*
X152077714Y-101521523D02*
X152325333Y-101397713D01*
X152449143Y-101150094D01*
X152449143Y-100778666D01*
X152325333Y-100531046D01*
X152077714Y-100407237D01*
X150715810Y-100407237D01*
X150839619Y-98178665D02*
X150715810Y-98426284D01*
X150715810Y-98921522D01*
X150839619Y-99169141D01*
X151087238Y-99292951D01*
X152077714Y-99292951D01*
X152325333Y-99169141D01*
X152449143Y-98921522D01*
X152449143Y-98426284D01*
X152325333Y-98178665D01*
X152077714Y-98054856D01*
X151830095Y-98054856D01*
X151582476Y-99292951D01*
X150839619Y-97064380D02*
X150715810Y-96816761D01*
X150715810Y-96321523D01*
X150839619Y-96073904D01*
X151087238Y-95950094D01*
X151211048Y-95950094D01*
X151458667Y-96073904D01*
X151582476Y-96321523D01*
X151582476Y-96692951D01*
X151706286Y-96940570D01*
X151953905Y-97064380D01*
X152077714Y-97064380D01*
X152325333Y-96940570D01*
X152449143Y-96692951D01*
X152449143Y-96321523D01*
X152325333Y-96073904D01*
X150715810Y-93721523D02*
X153315810Y-93721523D01*
X150839619Y-93721523D02*
X150715810Y-93969142D01*
X150715810Y-94464380D01*
X150839619Y-94711999D01*
X150963429Y-94835808D01*
X151211048Y-94959618D01*
X151953905Y-94959618D01*
X152201524Y-94835808D01*
X152325333Y-94711999D01*
X152449143Y-94464380D01*
X152449143Y-93969142D01*
X152325333Y-93721523D01*
X150715810Y-91369142D02*
X152077714Y-91369142D01*
X152325333Y-91492951D01*
X152449143Y-91740570D01*
X152449143Y-92235808D01*
X152325333Y-92483427D01*
X150839619Y-91369142D02*
X150715810Y-91616761D01*
X150715810Y-92235808D01*
X150839619Y-92483427D01*
X151087238Y-92607237D01*
X151334857Y-92607237D01*
X151582476Y-92483427D01*
X151706286Y-92235808D01*
X151706286Y-91616761D01*
X151830095Y-91369142D01*
X152449143Y-90378665D02*
X150715810Y-89759618D01*
X152449143Y-89140570D02*
X150715810Y-89759618D01*
X150096762Y-90007237D01*
X149972952Y-90131046D01*
X149849143Y-90378665D01*
X152201524Y-87778666D02*
X152325333Y-88026285D01*
X152449143Y-88150094D01*
X152696762Y-88273904D01*
X152820571Y-88273904D01*
X153068190Y-88150094D01*
X153192000Y-88026285D01*
X153315810Y-87778666D01*
X153315810Y-87283428D01*
X153192000Y-87035809D01*
X153068190Y-86911999D01*
X152820571Y-86788190D01*
X152696762Y-86788190D01*
X152449143Y-86911999D01*
X152325333Y-87035809D01*
X152201524Y-87283428D01*
X152201524Y-87778666D01*
X152077714Y-88026285D01*
X151953905Y-88150094D01*
X151706286Y-88273904D01*
X151211048Y-88273904D01*
X150963429Y-88150094D01*
X150839619Y-88026285D01*
X150715810Y-87778666D01*
X150715810Y-87283428D01*
X150839619Y-87035809D01*
X150963429Y-86911999D01*
X151211048Y-86788190D01*
X151706286Y-86788190D01*
X151953905Y-86911999D01*
X152077714Y-87035809D01*
X152201524Y-87283428D01*
X153315810Y-84559619D02*
X153315810Y-85054857D01*
X153192000Y-85302476D01*
X153068190Y-85426285D01*
X152696762Y-85673904D01*
X152201524Y-85797714D01*
X151211048Y-85797714D01*
X150963429Y-85673904D01*
X150839619Y-85550095D01*
X150715810Y-85302476D01*
X150715810Y-84807238D01*
X150839619Y-84559619D01*
X150963429Y-84435809D01*
X151211048Y-84312000D01*
X151830095Y-84312000D01*
X152077714Y-84435809D01*
X152201524Y-84559619D01*
X152325333Y-84807238D01*
X152325333Y-85302476D01*
X152201524Y-85550095D01*
X152077714Y-85673904D01*
X151830095Y-85797714D01*
X146215810Y-102264380D02*
X148815810Y-102264380D01*
X148815810Y-101273904D01*
X148692000Y-101026285D01*
X148568190Y-100902476D01*
X148320571Y-100778666D01*
X147949143Y-100778666D01*
X147701524Y-100902476D01*
X147577714Y-101026285D01*
X147453905Y-101273904D01*
X147453905Y-102264380D01*
X146215810Y-99664380D02*
X147949143Y-99664380D01*
X147453905Y-99664380D02*
X147701524Y-99540571D01*
X147825333Y-99416761D01*
X147949143Y-99169142D01*
X147949143Y-98921523D01*
X146215810Y-97683428D02*
X146339619Y-97931047D01*
X146463429Y-98054856D01*
X146711048Y-98178666D01*
X147453905Y-98178666D01*
X147701524Y-98054856D01*
X147825333Y-97931047D01*
X147949143Y-97683428D01*
X147949143Y-97311999D01*
X147825333Y-97064380D01*
X147701524Y-96940571D01*
X147453905Y-96816761D01*
X146711048Y-96816761D01*
X146463429Y-96940571D01*
X146339619Y-97064380D01*
X146215810Y-97311999D01*
X146215810Y-97683428D01*
X147949143Y-95702475D02*
X145720571Y-95702475D01*
X145472952Y-95826285D01*
X145349143Y-96073904D01*
X145349143Y-96197713D01*
X148815810Y-95702475D02*
X148692000Y-95826285D01*
X148568190Y-95702475D01*
X148692000Y-95578666D01*
X148815810Y-95702475D01*
X148568190Y-95702475D01*
X146339619Y-93473904D02*
X146215810Y-93721523D01*
X146215810Y-94216761D01*
X146339619Y-94464380D01*
X146587238Y-94588190D01*
X147577714Y-94588190D01*
X147825333Y-94464380D01*
X147949143Y-94216761D01*
X147949143Y-93721523D01*
X147825333Y-93473904D01*
X147577714Y-93350095D01*
X147330095Y-93350095D01*
X147082476Y-94588190D01*
X146339619Y-91121524D02*
X146215810Y-91369143D01*
X146215810Y-91864381D01*
X146339619Y-92112000D01*
X146463429Y-92235809D01*
X146711048Y-92359619D01*
X147453905Y-92359619D01*
X147701524Y-92235809D01*
X147825333Y-92112000D01*
X147949143Y-91864381D01*
X147949143Y-91369143D01*
X147825333Y-91121524D01*
X147949143Y-90378667D02*
X147949143Y-89388191D01*
X148815810Y-90007238D02*
X146587238Y-90007238D01*
X146339619Y-89883429D01*
X146215810Y-89635810D01*
X146215810Y-89388191D01*
D12*
X164163428Y-62146571D02*
X165020571Y-62146571D01*
X164591999Y-62146571D02*
X164591999Y-60646571D01*
X164734856Y-60860857D01*
X164877714Y-61003714D01*
X165020571Y-61075143D01*
X127170571Y-59864572D02*
X127170571Y-59007429D01*
X127170571Y-59436001D02*
X125670571Y-59436001D01*
X125884857Y-59293144D01*
X126027714Y-59150286D01*
X126099143Y-59007429D01*
M02*
